<svg width="35.000000" height="35.000000" viewBox="0 0 35 35" fill="none" xmlns="http://www.w3.org/2000/svg" xmlns:xlink="http://www.w3.org/1999/xlink">
	<desc>
			Created with Pixso.
	</desc>
	<defs/>
	<path id="Vector" d="M0 33.12C0 33.62 0.19 34.09 0.54 34.45C0.9 34.8 1.37 35 1.87 35L33.12 35C33.62 35 34.09 34.8 34.45 34.45C34.8 34.09 35 33.62 35 33.12L35 11.25L0 11.25L0 33.12ZM25 14.06C25 13.97 25.03 13.9 25.09 13.84C25.15 13.78 25.22 13.75 25.31 13.75L28.43 13.75C28.52 13.75 28.59 13.78 28.65 13.84C28.71 13.9 28.75 13.97 28.75 14.06L28.75 17.18C28.75 17.27 28.71 17.34 28.65 17.4C28.59 17.46 28.52 17.5 28.43 17.5L25.31 17.5C25.22 17.5 25.15 17.46 25.09 17.4C25.03 17.34 25 17.27 25 17.18L25 14.06ZM25 20.31C25 20.22 25.03 20.15 25.09 20.09C25.15 20.03 25.22 20 25.31 20L28.43 20C28.52 20 28.59 20.03 28.65 20.09C28.71 20.15 28.75 20.22 28.75 20.31L28.75 23.43C28.75 23.52 28.71 23.59 28.65 23.65C28.59 23.71 28.52 23.75 28.43 23.75L25.31 23.75C25.22 23.75 25.15 23.71 25.09 23.65C25.03 23.59 25 23.52 25 23.43L25 20.31ZM18.75 14.06C18.75 13.97 18.78 13.9 18.84 13.84C18.9 13.78 18.97 13.75 19.06 13.75L22.18 13.75C22.27 13.75 22.34 13.78 22.4 13.84C22.46 13.9 22.5 13.97 22.5 14.06L22.5 17.18C22.5 17.27 22.46 17.34 22.4 17.4C22.34 17.46 22.27 17.5 22.18 17.5L19.06 17.5C18.97 17.5 18.9 17.46 18.84 17.4C18.78 17.34 18.75 17.27 18.75 17.18L18.75 14.06ZM18.75 20.31C18.75 20.22 18.78 20.15 18.84 20.09C18.9 20.03 18.97 20 19.06 20L22.18 20C22.27 20 22.34 20.03 22.4 20.09C22.46 20.15 22.5 20.22 22.5 20.31L22.5 23.43C22.5 23.52 22.46 23.59 22.4 23.65C22.34 23.71 22.27 23.75 22.18 23.75L19.06 23.75C18.97 23.75 18.9 23.71 18.84 23.65C18.78 23.59 18.75 23.52 18.75 23.43L18.75 20.31ZM18.75 26.56C18.75 26.47 18.78 26.4 18.84 26.34C18.9 26.28 18.97 26.25 19.06 26.25L22.18 26.25C22.27 26.25 22.34 26.28 22.4 26.34C22.46 26.4 22.5 26.47 22.5 26.56L22.5 29.68C22.5 29.77 22.46 29.84 22.4 29.9C22.34 29.96 22.27 30 22.18 30L19.06 30C18.97 30 18.9 29.96 18.84 29.9C18.78 29.84 18.75 29.77 18.75 29.68L18.75 26.56ZM12.5 20.31C12.5 20.22 12.53 20.15 12.59 20.09C12.65 20.03 12.72 20 12.81 20L15.93 20C16.02 20 16.09 20.03 16.15 20.09C16.21 20.15 16.25 20.22 16.25 20.31L16.25 23.43C16.25 23.52 16.21 23.59 16.15 23.65C16.09 23.71 16.02 23.75 15.93 23.75L12.81 23.75C12.72 23.75 12.65 23.71 12.59 23.65C12.53 23.59 12.5 23.52 12.5 23.43L12.5 20.31ZM12.5 26.56C12.5 26.47 12.53 26.4 12.59 26.34C12.65 26.28 12.72 26.25 12.81 26.25L15.93 26.25C16.02 26.25 16.09 26.28 16.15 26.34C16.21 26.4 16.25 26.47 16.25 26.56L16.25 29.68C16.25 29.77 16.21 29.84 16.15 29.9C16.09 29.96 16.02 30 15.93 30L12.81 30C12.72 30 12.65 29.96 12.59 29.9C12.53 29.84 12.5 29.77 12.5 29.68L12.5 26.56ZM6.25 20.31C6.25 20.22 6.28 20.15 6.34 20.09C6.4 20.03 6.47 20 6.56 20L9.68 20C9.77 20 9.84 20.03 9.9 20.09C9.96 20.15 10 20.22 10 20.31L10 23.43C10 23.52 9.96 23.59 9.9 23.65C9.84 23.71 9.77 23.75 9.68 23.75L6.56 23.75C6.47 23.75 6.4 23.71 6.34 23.65C6.28 23.59 6.25 23.52 6.25 23.43L6.25 20.31ZM6.25 26.56C6.25 26.47 6.28 26.4 6.34 26.34C6.4 26.28 6.47 26.25 6.56 26.25L9.68 26.25C9.77 26.25 9.84 26.28 9.9 26.34C9.96 26.4 10 26.47 10 26.56L10 29.68C10 29.77 9.96 29.84 9.9 29.9C9.84 29.96 9.77 30 9.68 30L6.56 30C6.47 30 6.4 29.96 6.34 29.9C6.28 29.84 6.25 29.77 6.25 29.68L6.25 26.56ZM33.12 2.5L28.75 2.5L28.75 0L25 0L25 2.5L9.99 2.5L9.99 0L6.24 0L6.24 2.5L1.87 2.5C1.62 2.49 1.38 2.54 1.15 2.63C0.93 2.72 0.72 2.86 0.55 3.03C0.37 3.21 0.23 3.41 0.14 3.64C0.04 3.86 0 4.11 0 4.35L0 8.75L35 8.75L35 4.35C34.99 4.11 34.95 3.86 34.85 3.64C34.76 3.41 34.62 3.21 34.44 3.03C34.27 2.86 34.06 2.72 33.84 2.63C33.61 2.54 33.37 2.49 33.12 2.5Z" fill="#05B093" fill-opacity="1.000000" fill-rule="nonzero"/>
</svg>
