<svg width="330.000000" height="40.000000" viewBox="0 0 330 40" fill="none" xmlns="http://www.w3.org/2000/svg" xmlns:xlink="http://www.w3.org/1999/xlink">
	<desc>
			Created with Pixso.
	</desc>
	<defs>
		<clipPath id="clip2_366">
			<rect id="logo" width="330.000000" height="40.000000" fill="white" fill-opacity="0"/>
		</clipPath>
	</defs>
	<g clip-path="url(#clip2_366)">
		<path id="Сайт Концертно - экскурсионных программ" d="M20.92 14.62Q20.92 14.46 20.98 14.34Q21.02 14.25 21.09 14.18Q21.18 14.09 21.28 14.04L21.28 14.04Q21.39 14 21.52 14C21.66 14 21.78 14.03 21.88 14.11Q22.02 14.23 22.25 14.68C22.46 15.08 22.69 15.28 22.94 15.28C23.19 15.28 23.42 15.08 23.63 14.68Q23.83 14.29 23.97 14.15C24.08 14.05 24.21 14 24.36 14C24.53 14 24.67 14.06 24.78 14.18Q24.85 14.26 24.89 14.35Q24.94 14.47 24.94 14.62C24.94 14.96 24.75 15.22 24.36 15.4C23.97 15.57 23.5 15.66 22.96 15.66C22.37 15.66 21.88 15.57 21.49 15.39Q21.09 15.2 20.97 14.9Q20.92 14.77 20.92 14.62ZM28.7 15.85L29.07 15.85C29.1 15.89 29.12 15.93 29.13 15.95C29.24 16.15 29.32 16.28 29.38 16.34Q29.46 16.37 30.19 16.37Q30.65 16.37 31 16.36L31.12 16.34L31.84 16.33L33.17 16.35L35 16.35L35.35 16.29Q35.43 16.23 35.51 15.99C35.53 15.95 35.55 15.9 35.58 15.83L35.84 15.83C35.88 15.83 35.94 15.83 36.02 15.83C36.02 16.12 36.02 16.56 36.02 17.14L36.03 17.69L36.02 18.01C36.02 18.12 36.01 18.21 36 18.29C35.84 18.35 35.7 18.38 35.57 18.39C35.47 18.23 35.36 18 35.24 17.69C35.12 17.38 35.04 17.21 35.01 17.17C34.96 17.12 34.91 17.08 34.85 17.07Q34.7 17.04 33.59 17.04C33.48 17.04 33.34 17.04 33.18 17.06C33.16 17.22 33.14 17.36 33.14 17.46L33.15 18.3L33.15 20.14L33.17 22.12L33.17 22.94C33.17 23.22 33.19 23.44 33.24 23.59C33.3 23.62 33.42 23.64 33.59 23.67C33.62 23.67 33.76 23.71 34.02 23.77C34.14 23.8 34.25 23.83 34.34 23.87C34.36 24.02 34.37 24.11 34.37 24.14C34.37 24.18 34.36 24.23 34.35 24.31C34.26 24.31 34.19 24.31 34.14 24.31C33.73 24.31 33.39 24.3 33.1 24.27Q32.68 24.22 31.56 24.22C31.44 24.22 31.09 24.24 30.52 24.29Q30.18 24.32 30.08 24.32C30.08 24.26 30.07 24.21 30.07 24.17L30.06 24.03L30.06 23.98C30.15 23.86 30.31 23.77 30.55 23.71C30.96 23.61 31.25 23.51 31.41 23.43C31.45 23.35 31.47 23.25 31.48 23.12Q31.52 22.37 31.52 20.73L31.49 18.36C31.49 17.71 31.48 17.32 31.45 17.18C31.45 17.14 31.43 17.11 31.41 17.1C31.39 17.08 31.36 17.06 31.33 17.06C31.21 17.04 30.81 17.04 30.13 17.04C29.76 17.04 29.52 17.07 29.39 17.15C29.22 17.25 28.97 17.54 28.63 18C28.53 18.13 28.46 18.2 28.41 18.2C28.23 18.1 28.11 18.02 28.06 17.96C28.18 17.68 28.35 17.14 28.57 16.33C28.63 16.09 28.68 15.93 28.7 15.85ZM95.19 15.85L95.55 15.85C95.58 15.89 95.6 15.93 95.61 15.95C95.72 16.15 95.81 16.28 95.87 16.34C95.92 16.36 96.19 16.37 96.68 16.37C96.98 16.37 97.25 16.36 97.49 16.36L97.6 16.34L98.32 16.33L99.66 16.35L101.48 16.35L101.83 16.29C101.88 16.25 101.94 16.15 102 15.99C102.01 15.95 102.03 15.9 102.06 15.83L102.32 15.83C102.36 15.83 102.42 15.83 102.5 15.83C102.5 16.12 102.51 16.56 102.51 17.14L102.51 17.69L102.51 18.01C102.51 18.12 102.5 18.21 102.48 18.29C102.32 18.35 102.18 18.38 102.06 18.39C101.95 18.23 101.84 18 101.72 17.69C101.6 17.38 101.53 17.21 101.49 17.17C101.45 17.12 101.39 17.08 101.33 17.07C101.23 17.05 100.82 17.04 100.08 17.04C99.97 17.04 99.83 17.04 99.66 17.06C99.64 17.22 99.63 17.36 99.63 17.46L99.63 18.3L99.63 20.14L99.66 22.12L99.65 22.94C99.65 23.22 99.67 23.44 99.72 23.59C99.78 23.62 99.9 23.64 100.07 23.67C100.1 23.67 100.25 23.71 100.51 23.77C100.63 23.8 100.73 23.83 100.82 23.87C100.84 24.02 100.85 24.11 100.85 24.14C100.85 24.18 100.84 24.23 100.83 24.31Q100.7 24.31 100.62 24.31C100.21 24.31 99.87 24.3 99.58 24.27C99.3 24.23 98.79 24.22 98.04 24.22Q97.86 24.22 97 24.29C96.78 24.31 96.63 24.32 96.56 24.32C96.56 24.26 96.56 24.21 96.55 24.17L96.55 24.03L96.55 23.98C96.63 23.86 96.8 23.77 97.04 23.71C97.45 23.61 97.73 23.51 97.89 23.43C97.93 23.35 97.95 23.25 97.96 23.12C97.99 22.62 98 21.82 98 20.73L97.97 18.36C97.97 17.71 97.96 17.32 97.94 17.18C97.93 17.14 97.91 17.11 97.89 17.1C97.87 17.08 97.85 17.06 97.81 17.06C97.69 17.04 97.29 17.04 96.62 17.04C96.25 17.04 96 17.07 95.87 17.15C95.7 17.25 95.45 17.54 95.11 18C95.01 18.13 94.94 18.2 94.89 18.2C94.71 18.1 94.59 18.02 94.54 17.96C94.66 17.68 94.83 17.14 95.05 16.33C95.11 16.09 95.16 15.93 95.19 15.85ZM8.71 16.33C8.76 16.45 8.87 16.81 9.02 17.4C9.09 17.67 9.13 17.95 9.14 18.25L8.6 18.25C8.22 17.68 7.83 17.28 7.43 17.03Q7.22 16.9 7 16.82Q6.57 16.65 6.08 16.65Q5.65 16.65 5.3 16.82Q4.9 17.01 4.6 17.41Q3.84 18.44 3.84 20.27C3.84 20.98 3.88 21.48 3.97 21.78Q4.18 22.52 4.51 22.98C4.67 23.21 4.89 23.4 5.16 23.54Q5.42 23.68 5.7 23.75Q5.97 23.82 6.27 23.82Q6.38 23.82 6.49 23.81Q7.02 23.75 7.52 23.39C7.93 23.1 8.32 22.68 8.69 22.11C8.83 22.08 9.02 22.06 9.26 22.06C9.24 22.22 9.22 22.38 9.18 22.55Q9.17 22.65 9.05 23.35L8.99 23.54L8.91 23.83C8.67 24.03 8.33 24.17 7.89 24.27Q7.24 24.42 6.29 24.42C5.81 24.42 5.35 24.37 4.92 24.27C4.49 24.18 4.12 24.03 3.81 23.82C3.36 23.52 3.01 23.19 2.75 22.84Q2.54 22.55 2.39 22.24L2.39 22.24Q2.26 21.98 2.18 21.7Q2 21.08 2 20.31Q2 19.03 2.54 18.05Q2.79 17.61 3.15 17.23Q3.61 16.76 4.15 16.47Q5.02 16.02 6.12 16.02Q6.85 16.02 7.5 16.1Q8.15 16.17 8.71 16.33ZM138.85 19.88C138.81 18.78 138.6 17.96 138.22 17.44C137.85 16.92 137.29 16.65 136.55 16.65C136.1 16.65 135.68 16.76 135.29 16.98Q134.72 17.3 134.09 18.25L133.55 18.25C133.56 17.76 133.7 17.14 133.97 16.4C134.73 16.15 135.63 16.02 136.65 16.02Q138.21 16.02 139.19 16.77L139.19 16.77Q139.44 16.96 139.65 17.2C140.34 17.99 140.69 18.99 140.69 20.21C140.69 21.56 140.3 22.6 139.51 23.33C138.73 24.06 137.69 24.42 136.39 24.42Q134.69 24.42 133.77 23.83C133.6 23.16 133.48 22.57 133.42 22.06C133.66 22.06 133.85 22.08 134 22.11C134.57 23.25 135.36 23.82 136.37 23.82Q136.93 23.82 137.38 23.6Q137.82 23.4 138.16 23C138.64 22.45 138.87 21.59 138.87 20.43L138.58 20.44Q138.5 20.44 138.29 20.43L137.37 20.41Q136.47 20.41 136.33 20.53C136.24 20.61 136.14 20.88 136.05 21.35L135.96 21.76L135.54 21.76L135.55 21.3L135.58 20.55L135.57 20.33L135.56 19.44C135.56 19.18 135.57 18.89 135.58 18.54L135.91 18.54C135.93 18.54 135.96 18.54 136 18.54C136.11 19.21 136.23 19.6 136.36 19.72C136.5 19.84 137.19 19.9 138.42 19.9L138.85 19.88ZM157.07 16.33C157.12 16.45 157.23 16.81 157.38 17.4C157.45 17.67 157.49 17.95 157.5 18.25L156.96 18.25Q156.39 17.4 155.79 17.03C155.39 16.78 154.94 16.65 154.44 16.65C153.83 16.65 153.34 16.91 152.96 17.41C152.45 18.1 152.2 19.05 152.2 20.27C152.2 20.98 152.24 21.48 152.33 21.78Q152.54 22.52 152.87 22.98C153.03 23.21 153.25 23.4 153.52 23.54C153.86 23.72 154.23 23.82 154.63 23.82C155.06 23.82 155.48 23.68 155.88 23.39C156.29 23.1 156.68 22.68 157.05 22.11C157.19 22.08 157.38 22.06 157.62 22.06C157.6 22.22 157.58 22.38 157.54 22.55C157.53 22.62 157.49 22.89 157.41 23.35L157.35 23.54L157.27 23.83C157.03 24.03 156.69 24.17 156.25 24.27C155.82 24.37 155.29 24.42 154.65 24.42C154.17 24.42 153.71 24.37 153.28 24.27C152.85 24.18 152.48 24.03 152.17 23.82C151.72 23.52 151.37 23.19 151.11 22.84C150.86 22.49 150.66 22.11 150.54 21.7C150.42 21.28 150.35 20.82 150.35 20.31Q150.35 19.03 150.9 18.05Q151.15 17.61 151.51 17.23C152.29 16.42 153.28 16.02 154.48 16.02C154.97 16.02 155.43 16.04 155.86 16.1Q156.51 16.17 157.07 16.33ZM189.23 16.33C189.28 16.45 189.39 16.81 189.54 17.4C189.61 17.67 189.65 17.95 189.66 18.25L189.12 18.25Q188.55 17.4 187.95 17.03C187.55 16.78 187.1 16.65 186.6 16.65C185.99 16.65 185.5 16.91 185.12 17.41Q184.36 18.44 184.36 20.27C184.36 20.98 184.4 21.48 184.49 21.78C184.63 22.27 184.81 22.67 185.03 22.98C185.19 23.21 185.41 23.4 185.68 23.54C186.02 23.72 186.39 23.82 186.79 23.82C187.22 23.82 187.64 23.68 188.04 23.39C188.45 23.1 188.84 22.68 189.21 22.11C189.35 22.08 189.54 22.06 189.78 22.06C189.76 22.22 189.74 22.38 189.7 22.55C189.69 22.62 189.65 22.89 189.57 23.35L189.51 23.54L189.43 23.83C189.19 24.03 188.85 24.17 188.41 24.27C187.98 24.37 187.45 24.42 186.81 24.42C186.33 24.42 185.87 24.37 185.43 24.27C185.01 24.18 184.64 24.03 184.33 23.82C183.88 23.52 183.53 23.19 183.27 22.84C183.01 22.49 182.82 22.11 182.7 21.7C182.58 21.28 182.51 20.82 182.51 20.31C182.51 19.06 182.9 18.04 183.67 17.23C184.45 16.42 185.44 16.02 186.64 16.02C187.13 16.02 187.59 16.04 188.02 16.1C188.45 16.15 188.86 16.22 189.23 16.33ZM43.89 19.53C44.24 19.65 44.55 19.85 44.81 20.15Q45.22 20.58 45.79 21.65C46.24 22.49 46.58 23.03 46.81 23.27C47.04 23.5 47.35 23.68 47.73 23.79C47.88 23.83 47.97 23.87 48.01 23.89C48.01 23.97 48.02 24.03 48.02 24.07Q48.02 24.14 47.99 24.3L47.34 24.29L46.45 24.26C46.23 24.26 45.93 24.28 45.56 24.31C45.32 23.74 44.94 23.01 44.43 22.12C43.93 21.23 43.56 20.7 43.32 20.53C43.09 20.36 42.84 20.28 42.6 20.28C42.58 20.43 42.57 20.57 42.57 20.7L42.6 21.56C42.61 21.73 42.61 21.9 42.61 22.06L42.6 22.81L42.61 23.03L42.63 23.46C42.7 23.56 42.9 23.65 43.22 23.74C43.39 23.79 43.54 23.85 43.67 23.94C43.68 24.02 43.68 24.08 43.68 24.12C43.68 24.16 43.68 24.21 43.67 24.28C43.5 24.29 43.35 24.29 43.24 24.29C42.95 24.29 42.63 24.28 42.28 24.26L41.89 24.23L41.35 24.25L40.31 24.24L39.75 24.26L39.74 23.91C39.78 23.88 39.96 23.8 40.3 23.67L40.45 23.6C40.62 23.52 40.74 23.47 40.8 23.45C40.88 23.4 40.93 23.33 40.95 23.24C40.98 23.15 40.99 22.83 40.99 22.27L40.97 21.67L40.98 20.34L40.97 19.4L40.98 19.13L40.97 18.32L40.99 18C40.99 17.52 40.96 17.19 40.9 17.02C40.78 16.91 40.54 16.81 40.19 16.72C39.98 16.66 39.84 16.61 39.76 16.55L39.81 16.16Q39.92 16.14 40.04 16.14C40.33 16.14 40.62 16.16 40.9 16.2C41.19 16.24 41.56 16.26 42.01 16.26L42.26 16.25L42.97 16.22C43.08 16.22 43.22 16.21 43.41 16.19L43.61 16.17L43.76 16.18C43.77 16.21 43.78 16.26 43.78 16.32C43.78 16.46 43.77 16.55 43.76 16.59C43.52 16.69 43.27 16.76 43.02 16.8C42.82 16.84 42.7 16.88 42.65 16.91C42.6 16.94 42.58 17.02 42.58 17.14Q42.58 17.76 42.59 17.96L42.6 18.49L42.59 18.89L42.59 19.37L42.58 19.91C42.82 19.83 43.04 19.71 43.26 19.54C43.49 19.37 43.76 18.99 44.1 18.4C44.67 17.38 45.16 16.73 45.55 16.45Q46.14 16.03 46.73 16.03C47.12 16.03 47.42 16.14 47.63 16.35Q47.79 16.52 47.87 16.71Q47.94 16.89 47.94 17.1C47.94 17.32 47.88 17.51 47.75 17.68C47.62 17.85 47.44 17.93 47.22 17.93C47.05 17.93 46.91 17.89 46.81 17.82C46.71 17.74 46.58 17.59 46.44 17.37C46.3 17.14 46.16 17.03 46.01 17.03C45.68 17.03 45.25 17.5 44.73 18.46C44.42 19.01 44.14 19.37 43.89 19.53ZM48.51 20.15C48.51 19.63 48.61 19.11 48.8 18.59C48.94 18.21 49.13 17.87 49.38 17.56C49.63 17.24 49.94 16.96 50.31 16.72C50.69 16.48 51.07 16.3 51.46 16.2Q52.04 16.03 52.76 16.03C53.58 16.03 54.3 16.2 54.9 16.52C55.5 16.85 55.98 17.29 56.32 17.84Q56.81 18.63 56.95 19.48Q57 19.79 57 20.11Q57 21.13 56.62 21.98Q56.34 22.61 55.86 23.15Q55.58 23.46 55.25 23.69Q54.23 24.41 52.69 24.41C52.36 24.41 52.05 24.39 51.75 24.34C51.53 24.31 51.34 24.26 51.17 24.21C50.87 24.1 50.71 24.04 50.67 24.02C50.24 23.77 49.9 23.5 49.64 23.23Q49.59 23.18 49.55 23.14L49.55 23.14Q49.22 22.76 48.98 22.31C48.88 22.12 48.76 21.77 48.64 21.27C48.56 20.95 48.51 20.57 48.51 20.15ZM113.89 20.15C113.89 19.63 113.98 19.11 114.17 18.59C114.31 18.21 114.5 17.87 114.75 17.56Q115.12 17.09 115.68 16.72C116.06 16.48 116.44 16.3 116.83 16.2C117.22 16.09 117.66 16.03 118.14 16.03Q119.37 16.03 120.27 16.52C120.87 16.85 121.35 17.29 121.69 17.84C122.14 18.56 122.37 19.32 122.37 20.11Q122.37 21.13 121.99 21.98Q121.71 22.61 121.23 23.15C120.47 23.99 119.42 24.41 118.07 24.41C117.73 24.41 117.42 24.39 117.13 24.34C116.9 24.31 116.71 24.26 116.55 24.21C116.25 24.1 116.08 24.04 116.04 24.02C115.61 23.77 115.27 23.5 115.01 23.23C114.75 22.96 114.53 22.65 114.35 22.31C114.25 22.12 114.14 21.77 114.01 21.27C113.93 20.95 113.89 20.57 113.89 20.15ZM145.71 19.53C146.06 19.65 146.37 19.85 146.64 20.15C146.9 20.44 147.23 20.94 147.61 21.65C148.06 22.49 148.4 23.03 148.63 23.27C148.86 23.5 149.17 23.68 149.56 23.79C149.7 23.83 149.79 23.87 149.83 23.89C149.84 23.97 149.84 24.03 149.84 24.07C149.84 24.12 149.83 24.2 149.82 24.3L149.17 24.29L148.27 24.26C148.05 24.26 147.75 24.28 147.39 24.31C147.14 23.74 146.76 23.01 146.26 22.12C145.75 21.23 145.38 20.7 145.15 20.53C144.91 20.36 144.67 20.28 144.42 20.28C144.4 20.43 144.39 20.57 144.39 20.7L144.42 21.56C144.43 21.73 144.44 21.9 144.44 22.06L144.42 22.81L144.44 23.03L144.45 23.46C144.53 23.56 144.72 23.65 145.04 23.74C145.22 23.79 145.37 23.85 145.49 23.94C145.5 24.02 145.51 24.08 145.51 24.12C145.51 24.16 145.5 24.21 145.5 24.28C145.32 24.29 145.17 24.29 145.06 24.29C144.77 24.29 144.45 24.28 144.11 24.26L143.71 24.23L143.18 24.25L142.13 24.24L141.57 24.26L141.56 23.91C141.6 23.88 141.78 23.8 142.12 23.67L142.27 23.6C142.45 23.52 142.56 23.47 142.62 23.45C142.7 23.4 142.75 23.33 142.78 23.24Q142.81 23.1 142.81 22.27L142.79 21.67L142.8 20.34L142.79 19.4L142.81 19.13L142.79 18.32L142.81 18C142.81 17.52 142.78 17.19 142.72 17.02C142.6 16.91 142.36 16.81 142.01 16.72C141.8 16.66 141.66 16.61 141.59 16.55L141.63 16.16C141.7 16.15 141.78 16.14 141.87 16.14C142.15 16.14 142.44 16.16 142.72 16.2C143.01 16.24 143.38 16.26 143.83 16.26L144.08 16.25L144.79 16.22C144.9 16.22 145.04 16.21 145.23 16.19L145.44 16.17L145.58 16.18C145.6 16.21 145.6 16.26 145.6 16.32C145.6 16.46 145.6 16.55 145.58 16.59C145.34 16.69 145.1 16.76 144.84 16.8C144.64 16.84 144.52 16.88 144.47 16.91C144.42 16.94 144.4 17.02 144.4 17.14C144.4 17.55 144.41 17.83 144.41 17.96L144.42 18.49L144.41 18.89L144.41 19.37L144.41 19.91C144.64 19.83 144.87 19.71 145.09 19.54C145.31 19.37 145.59 18.99 145.92 18.4C146.5 17.38 146.98 16.73 147.37 16.45C147.76 16.17 148.16 16.03 148.55 16.03Q149.1 16.03 149.4 16.3Q149.42 16.33 149.45 16.35C149.66 16.56 149.76 16.81 149.76 17.1C149.76 17.32 149.7 17.51 149.57 17.68C149.44 17.85 149.27 17.93 149.04 17.93C148.87 17.93 148.73 17.89 148.63 17.82C148.53 17.74 148.41 17.59 148.26 17.37C148.12 17.14 147.98 17.03 147.84 17.03Q147.34 17.03 146.55 18.46Q146.09 19.28 145.71 19.53ZM162.47 19.53C162.82 19.65 163.13 19.85 163.4 20.15C163.67 20.44 164 20.94 164.38 21.65C164.83 22.49 165.17 23.03 165.39 23.27C165.63 23.5 165.94 23.68 166.32 23.79C166.46 23.83 166.55 23.87 166.59 23.89C166.6 23.97 166.61 24.03 166.61 24.07C166.61 24.12 166.6 24.2 166.58 24.3L165.93 24.29L165.04 24.26C164.81 24.26 164.52 24.28 164.15 24.31Q163.78 23.45 163.02 22.12Q162.27 20.78 161.91 20.53C161.67 20.36 161.43 20.28 161.18 20.28C161.17 20.43 161.16 20.57 161.16 20.7L161.19 21.56C161.2 21.73 161.2 21.9 161.2 22.06L161.19 22.81L161.2 23.03L161.21 23.46C161.29 23.56 161.49 23.65 161.81 23.74C161.98 23.79 162.13 23.85 162.25 23.94C162.27 24.02 162.27 24.08 162.27 24.12C162.27 24.16 162.27 24.21 162.26 24.28C162.08 24.29 161.94 24.29 161.83 24.29C161.54 24.29 161.22 24.28 160.87 24.26L160.48 24.23L159.94 24.25L158.9 24.24L158.34 24.26L158.33 23.91C158.37 23.88 158.55 23.8 158.89 23.67L159.04 23.6C159.21 23.52 159.33 23.47 159.39 23.45C159.47 23.4 159.52 23.33 159.54 23.24C159.57 23.15 159.58 22.83 159.58 22.27L159.56 21.67L159.57 20.34L159.56 19.4L159.57 19.13L159.56 18.32L159.58 18C159.58 17.52 159.55 17.19 159.49 17.02Q159.31 16.85 158.78 16.72C158.57 16.66 158.43 16.61 158.35 16.55L158.39 16.16C158.47 16.15 158.55 16.14 158.63 16.14C158.92 16.14 159.2 16.16 159.49 16.2C159.78 16.24 160.14 16.26 160.59 16.26L160.85 16.25L161.56 16.22C161.66 16.22 161.81 16.21 161.99 16.19L162.2 16.17L162.35 16.18C162.36 16.21 162.37 16.26 162.37 16.32C162.37 16.46 162.36 16.55 162.35 16.59C162.11 16.69 161.86 16.76 161.6 16.8C161.41 16.84 161.28 16.88 161.24 16.91C161.19 16.94 161.17 17.02 161.17 17.14Q161.17 17.76 161.18 17.96L161.19 18.49L161.18 18.89L161.18 19.37L161.17 19.91C161.41 19.83 161.63 19.71 161.85 19.54Q162.18 19.29 162.69 18.4Q163.55 16.87 164.13 16.45C164.53 16.17 164.92 16.03 165.32 16.03C165.71 16.03 166.01 16.14 166.22 16.35C166.27 16.4 166.31 16.45 166.35 16.51C166.35 16.48 166.35 16.46 166.35 16.42C166.36 16.38 166.36 16.32 166.36 16.24C166.42 16.22 166.54 16.2 166.71 16.2L167.1 16.19C167.12 16.2 167.14 16.2 167.16 16.2C167.26 16.22 167.33 16.23 167.37 16.23C167.38 16.23 167.4 16.23 167.43 16.22C167.84 16.29 168.39 16.32 169.08 16.32C169.39 16.32 169.7 16.3 170.01 16.25C170.05 16.25 170.08 16.24 170.11 16.24C170.11 16.24 170.12 16.24 170.15 16.25C170.17 16.3 170.18 16.34 170.18 16.37C170.18 16.38 170.17 16.41 170.17 16.45C170.17 16.48 170.16 16.5 170.16 16.52L170.17 16.7C170.09 16.73 169.98 16.76 169.85 16.79L169.58 16.84C169.45 16.86 169.32 16.88 169.18 16.9C169.15 16.91 169.14 16.94 169.14 17.01Q169.22 17.22 169.49 17.65L169.65 17.92L169.96 18.39L170.79 19.74L171.4 20.91L172.96 17.4C173.08 17.14 173.14 16.98 173.14 16.94C173.14 16.83 173.01 16.77 172.75 16.77L172.54 16.72C172.44 16.71 172.38 16.69 172.35 16.69C172.34 16.66 172.33 16.5 172.31 16.22C172.38 16.22 172.55 16.23 172.82 16.26L173.52 16.29L173.67 16.32L173.95 16.32L174.05 16.31C174.14 16.3 174.22 16.29 174.3 16.28L174.49 16.27L174.55 16.26C174.6 16.26 174.66 16.25 174.72 16.24L174.71 16.71L174.63 16.74C174.31 16.78 174.07 16.85 173.93 16.95C173.79 17.04 173.63 17.3 173.45 17.71L171.36 22.44C170.77 23.79 169.96 24.47 168.95 24.47C168.55 24.47 168.22 24.37 167.98 24.16C167.74 23.95 167.62 23.7 167.62 23.41C167.62 23.19 167.69 22.99 167.84 22.83C167.98 22.66 168.17 22.58 168.4 22.58C168.53 22.58 168.64 22.61 168.76 22.66C168.88 22.71 169.02 22.87 169.19 23.14Q169.4 23.47 169.62 23.47L169.62 23.47C170 23.47 170.33 23.17 170.63 22.56C170.6 22.33 170.23 21.69 169.52 20.65C169.3 20.32 169.09 20 168.89 19.68Q168.37 18.81 167.86 18.04L167.71 17.77C167.53 17.47 167.34 17.18 167.12 16.89C167.04 16.8 166.89 16.73 166.67 16.69L166.58 16.67C166.51 16.65 166.46 16.63 166.42 16.63C166.49 16.77 166.53 16.93 166.53 17.1C166.53 17.32 166.46 17.51 166.33 17.68C166.21 17.85 166.03 17.93 165.81 17.93C165.63 17.93 165.5 17.89 165.39 17.82C165.3 17.74 165.17 17.59 165.03 17.37C164.89 17.14 164.74 17.03 164.6 17.03Q164.11 17.03 163.32 18.46C163.01 19.01 162.73 19.37 162.47 19.53ZM201.18 20.15Q201.18 19.37 201.46 18.59C201.6 18.21 201.79 17.87 202.04 17.56C202.29 17.24 202.6 16.96 202.97 16.72C203.35 16.48 203.73 16.3 204.12 16.2C204.51 16.09 204.95 16.03 205.43 16.03C206.25 16.03 206.96 16.2 207.56 16.52Q208.17 16.85 208.61 17.34L208.61 17.34Q208.82 17.57 208.99 17.84C209.44 18.56 209.66 19.32 209.66 20.11C209.66 21.29 209.28 22.31 208.52 23.15C207.76 23.99 206.71 24.41 205.36 24.41C205.02 24.41 204.71 24.39 204.42 24.34C204.2 24.31 204 24.26 203.84 24.21C203.54 24.1 203.37 24.04 203.34 24.02C202.91 23.77 202.56 23.5 202.3 23.23C202.04 22.96 201.82 22.65 201.64 22.31C201.54 22.12 201.43 21.77 201.3 21.27C201.22 20.95 201.18 20.57 201.18 20.15ZM273.3 20.15C273.3 19.63 273.39 19.11 273.58 18.59C273.72 18.21 273.91 17.87 274.16 17.56C274.41 17.24 274.72 16.96 275.1 16.72C275.47 16.48 275.85 16.3 276.24 16.2C276.63 16.09 277.07 16.03 277.55 16.03C278.37 16.03 279.08 16.2 279.68 16.52C280.29 16.85 280.76 17.29 281.11 17.84Q281.6 18.63 281.73 19.48Q281.78 19.79 281.78 20.11Q281.78 21.13 281.4 21.98Q281.13 22.61 280.64 23.15C279.89 23.99 278.83 24.41 277.48 24.41C277.14 24.41 276.83 24.39 276.54 24.34C276.32 24.31 276.13 24.26 275.96 24.21C275.66 24.1 275.49 24.04 275.46 24.02C275.03 23.77 274.68 23.5 274.42 23.23C274.16 22.96 273.94 22.65 273.76 22.31C273.66 22.12 273.55 21.77 273.42 21.27Q273.3 20.79 273.3 20.15ZM9.5 24.3L9.51 23.87C9.58 23.85 9.72 23.82 9.9 23.78C10.21 23.72 10.39 23.66 10.45 23.61C10.52 23.56 10.6 23.44 10.7 23.25L11.89 19.94L13.29 16.05Q13.49 16.05 13.66 16.05L13.93 16.05L13.98 16.17L15.01 18.74C15.25 19.29 15.45 19.82 15.64 20.34C15.82 20.85 15.98 21.27 16.12 21.6C16.2 21.79 16.31 22.09 16.44 22.48C16.51 22.69 16.62 22.96 16.77 23.28C16.85 23.45 16.91 23.56 16.95 23.59C17.02 23.65 17.13 23.69 17.29 23.71C17.45 23.73 17.62 23.78 17.81 23.86C17.83 23.99 17.84 24.1 17.84 24.16C17.84 24.19 17.84 24.24 17.83 24.3C17.54 24.3 17.22 24.28 16.87 24.26C16.52 24.23 16.2 24.21 15.92 24.21C15.61 24.21 15.39 24.22 15.25 24.22L14.24 24.28L13.95 24.29C13.95 24.15 13.96 24.01 13.97 23.87L14.63 23.72C14.83 23.67 14.94 23.63 14.97 23.6C15.01 23.56 15.03 23.51 15.03 23.45C15.03 23.4 15.02 23.34 15 23.29L14.76 22.67L14.3 21.45L12.04 21.44C11.96 21.64 11.78 22.13 11.52 22.91C11.45 23.13 11.41 23.28 11.41 23.36C11.41 23.47 11.44 23.55 11.5 23.59C11.59 23.67 11.76 23.73 12.02 23.76C12.05 23.77 12.19 23.79 12.43 23.83C12.44 23.98 12.44 24.08 12.44 24.14C12.44 24.19 12.44 24.24 12.43 24.29Q12.06 24.29 10.68 24.18L10.44 24.22Q10 24.3 9.6 24.3L9.5 24.3ZM296.97 24.3L296.98 23.87C297.06 23.85 297.19 23.82 297.38 23.78C297.68 23.72 297.86 23.66 297.93 23.61C297.99 23.56 298.07 23.44 298.17 23.25L299.36 19.94L300.76 16.05Q300.96 16.05 301.14 16.05L301.4 16.05L301.46 16.17L302.49 18.74C302.72 19.29 302.93 19.82 303.11 20.34C303.3 20.85 303.46 21.27 303.59 21.6C303.67 21.79 303.78 22.09 303.92 22.48C303.99 22.69 304.1 22.96 304.24 23.28C304.32 23.45 304.38 23.56 304.42 23.59C304.49 23.65 304.6 23.69 304.76 23.71C304.92 23.73 305.1 23.78 305.28 23.86C305.3 23.99 305.31 24.1 305.31 24.16C305.31 24.19 305.31 24.24 305.31 24.3C305.01 24.3 304.69 24.28 304.34 24.26C303.99 24.23 303.68 24.21 303.4 24.21C303.08 24.21 302.86 24.22 302.72 24.22L301.72 24.28L301.43 24.29C301.43 24.15 301.43 24.01 301.45 23.87L302.1 23.72C302.3 23.67 302.41 23.63 302.44 23.6C302.48 23.56 302.5 23.51 302.5 23.45C302.5 23.4 302.49 23.34 302.47 23.29L302.24 22.67L301.77 21.45L299.51 21.44C299.43 21.64 299.26 22.13 299 22.91C298.92 23.13 298.89 23.28 298.89 23.36C298.89 23.47 298.91 23.55 298.97 23.59C299.06 23.67 299.23 23.73 299.49 23.76C299.52 23.77 299.66 23.79 299.91 23.83C299.91 23.98 299.91 24.08 299.91 24.14C299.91 24.19 299.91 24.24 299.9 24.29Q299.54 24.29 298.15 24.18L297.91 24.22C297.62 24.27 297.34 24.3 297.08 24.3L296.97 24.3ZM255.22 24.27C255.22 24.15 255.23 24 255.26 23.83C255.29 23.82 255.38 23.81 255.51 23.79L255.76 23.74C256.01 23.7 256.2 23.65 256.32 23.59L256.4 22.03L256.37 20.76L256.38 20.37L256.4 18.62L256.39 18.07L256.39 17.81C256.39 17.31 256.36 16.98 256.29 16.8C256.27 16.79 256.23 16.78 256.19 16.78C256.15 16.78 256.11 16.77 256.07 16.76C255.89 16.73 255.73 16.71 255.58 16.7L255.49 16.67C255.38 16.66 255.3 16.64 255.25 16.62C255.24 16.5 255.23 16.42 255.23 16.39C255.23 16.34 255.25 16.27 255.27 16.18Q255.4 16.15 255.55 16.15C255.78 16.15 256.03 16.16 256.28 16.18C256.99 16.24 257.77 16.27 258.61 16.27L260.51 16.23L261.91 16.25C262.96 16.25 263.7 16.22 264.14 16.17C264.31 16.15 264.42 16.13 264.49 16.13C264.56 16.13 264.68 16.14 264.85 16.16C264.85 16.33 264.84 16.47 264.82 16.6C264.29 16.71 263.94 16.82 263.77 16.92C263.74 17.01 263.72 17.24 263.72 17.63L263.72 17.76L263.73 18.07L263.73 19.46L263.73 20.56L263.74 21.38L263.74 22.27L263.75 23.01C263.75 23.16 263.75 23.32 263.74 23.51C263.82 23.54 263.9 23.56 263.97 23.57C264.34 23.66 264.62 23.74 264.81 23.83L264.83 24.27L264.55 24.27C264.5 24.27 264.43 24.27 264.34 24.26L263.9 24.24Q263.42 24.18 262.35 24.18C262.12 24.18 261.9 24.19 261.71 24.21L261.09 24.26C261.03 24.26 260.96 24.25 260.89 24.22C260.89 24.02 260.9 23.89 260.91 23.82L261.32 23.72L261.55 23.67C261.79 23.63 261.96 23.6 262.03 23.57C262.08 23.36 262.11 22.07 262.11 19.68L262.07 16.97C261.95 16.95 261.79 16.95 261.6 16.94L258.86 16.91L258.8 16.9Q258.79 16.9 258.76 16.9C258.74 16.9 258.7 16.9 258.67 16.9L258.41 16.91C258.19 16.91 258.05 16.93 257.99 16.95Q257.96 17.61 257.96 18.09L257.98 21.32L257.98 23.12C257.98 23.35 257.98 23.51 257.99 23.59C258.02 23.62 258.09 23.64 258.2 23.65L258.47 23.69C258.59 23.71 258.7 23.73 258.8 23.75L259.02 23.8C259.07 23.81 259.12 23.83 259.15 23.86Q259.17 24 259.17 24.05C259.17 24.1 259.16 24.18 259.15 24.27L258.78 24.28Q258.56 24.28 258.15 24.24L257.7 24.24L257.4 24.21L256.78 24.2C256.62 24.2 256.44 24.21 256.24 24.24L255.85 24.27L255.22 24.27ZM20.73 22.03Q23.87 18.67 24.84 17.5C24.84 17.19 24.83 17.01 24.81 16.97C24.79 16.92 24.73 16.86 24.62 16.81C24.51 16.75 24.29 16.68 23.97 16.6C23.82 16.57 23.72 16.54 23.67 16.52C23.68 16.36 23.7 16.24 23.72 16.16L23.89 16.15C24.22 16.15 24.44 16.16 24.55 16.17C24.86 16.21 25.17 16.23 25.48 16.23C25.99 16.23 26.45 16.21 26.87 16.17C27.02 16.15 27.14 16.14 27.23 16.14C27.32 16.14 27.44 16.15 27.6 16.16C27.6 16.33 27.59 16.47 27.57 16.6C27.13 16.7 26.83 16.79 26.69 16.85C26.55 16.91 26.48 17.01 26.48 17.17L26.48 18.07L26.49 19.46L26.48 20.26L26.49 21.38L26.49 22.27L26.5 23.01C26.5 23.16 26.5 23.32 26.49 23.51C26.58 23.54 26.65 23.56 26.72 23.57C27.09 23.66 27.37 23.74 27.56 23.83L27.58 24.27L27.33 24.27C27.26 24.27 27.18 24.27 27.1 24.26L26.65 24.24C26.33 24.2 25.81 24.18 25.1 24.18C24.74 24.18 24.46 24.19 24.27 24.22C24.02 24.25 23.87 24.26 23.82 24.26C23.78 24.26 23.72 24.25 23.64 24.22C23.64 24.02 23.65 23.89 23.67 23.82L24.07 23.72L24.3 23.67C24.55 23.63 24.71 23.6 24.78 23.57C24.84 23.26 24.86 22.52 24.86 21.35L24.86 19.51L24.87 18.34L20.73 22.85C20.73 23.32 20.74 23.57 20.75 23.59C20.77 23.62 20.84 23.64 20.95 23.65L21.34 23.71C21.68 23.78 21.87 23.83 21.91 23.86C21.92 23.95 21.92 24.02 21.92 24.05C21.92 24.1 21.92 24.18 21.9 24.27L21.53 24.28C21.38 24.28 21.17 24.27 20.9 24.24L20.46 24.24L20.16 24.22L19.62 24.2C19.44 24.2 19.23 24.21 18.99 24.24C18.73 24.26 18.4 24.27 17.97 24.27C17.97 24.15 17.99 24 18.01 23.83C18.05 23.82 18.13 23.81 18.26 23.79L18.51 23.74C18.76 23.7 18.95 23.65 19.07 23.59Q19.13 22.41 19.13 21.53L19.13 20.7L19.15 18.58C19.15 17.94 19.13 17.39 19.09 16.94C19.08 16.91 19.07 16.87 19.04 16.8C19.02 16.79 18.99 16.78 18.94 16.78C18.9 16.78 18.86 16.77 18.83 16.76C18.64 16.73 18.48 16.71 18.33 16.7L18.25 16.67C18.14 16.66 18.06 16.64 18 16.62C17.99 16.5 17.99 16.42 17.99 16.39C17.99 16.34 18 16.27 18.02 16.18C18.11 16.16 18.2 16.15 18.3 16.15C18.59 16.15 18.92 16.17 19.3 16.21C19.65 16.24 19.94 16.26 20.17 16.26C20.49 16.26 20.78 16.25 21.05 16.22Q21.54 16.16 21.63 16.16C21.71 16.16 21.8 16.17 21.92 16.19L21.92 16.38C21.92 16.45 21.92 16.53 21.9 16.62L20.86 16.8C20.8 16.81 20.76 16.9 20.75 17.09C20.74 17.28 20.74 17.5 20.74 17.76L20.74 18.06L20.74 18.62L20.74 18.94L20.72 19.37C20.72 19.42 20.73 19.52 20.74 19.66C20.74 19.85 20.75 20.04 20.75 20.22C20.75 20.37 20.74 20.52 20.74 20.67L20.72 21L20.73 22.03ZM57.95 24.27C57.95 24.15 57.96 24 57.98 23.83L58.72 23.69C58.81 23.67 58.92 23.64 59.05 23.59L59.13 22.03C59.11 21.47 59.1 21.04 59.1 20.76L59.11 20.61C59.12 20.44 59.13 20.01 59.13 19.33L59.11 19.14L59.13 18.62L59.12 18.07L59.12 17.81Q59.12 17.44 59.07 16.95C59.06 16.93 59.05 16.88 59.02 16.8C58.99 16.79 58.95 16.78 58.91 16.78C58.88 16.78 58.84 16.77 58.8 16.76C58.65 16.73 58.48 16.71 58.31 16.7L58.22 16.67C58.11 16.66 58.03 16.64 57.98 16.62C57.97 16.5 57.96 16.42 57.96 16.39C57.96 16.34 57.97 16.27 58 16.18Q58.11 16.16 58.33 16.16C58.47 16.16 58.57 16.16 58.62 16.15C59.1 16.21 59.46 16.24 59.69 16.24C59.8 16.24 59.91 16.25 60.01 16.25Q60.18 16.26 60.3 16.26C60.43 16.26 60.75 16.24 61.25 16.2Q61.38 16.17 61.53 16.17C61.67 16.17 61.79 16.17 61.89 16.19C61.9 16.28 61.9 16.34 61.9 16.38C61.9 16.45 61.89 16.53 61.87 16.62L60.83 16.8C60.75 16.84 60.7 16.9 60.7 16.98L60.72 17.21L60.73 17.31L60.72 17.59L60.71 17.8L60.71 17.85C60.71 17.89 60.72 17.93 60.72 17.97L60.71 18.76C60.71 18.84 60.72 18.89 60.72 18.93C60.72 18.95 60.71 19.02 60.7 19.13C60.7 19.2 60.7 19.27 60.7 19.34C60.7 19.4 60.7 19.55 60.72 19.78C60.83 19.8 60.92 19.82 60.99 19.82L61.87 19.84L62.29 19.84L63.36 19.84L64.39 19.81C64.53 19.81 64.67 19.8 64.82 19.77C64.83 19.63 64.83 19.28 64.84 18.72L64.85 18.44L64.81 17.38L64.77 16.94C64.76 16.91 64.73 16.89 64.69 16.86C64.55 16.78 64.27 16.68 63.86 16.58C63.79 16.56 63.71 16.54 63.65 16.52C63.66 16.37 63.67 16.25 63.7 16.16Q63.83 16.15 63.85 16.15L64.43 16.16C64.79 16.21 65.17 16.23 65.55 16.23C65.63 16.23 65.7 16.23 65.75 16.23L66.52 16.2C66.59 16.2 66.66 16.2 66.73 16.19C66.87 16.16 67.02 16.14 67.17 16.14C67.28 16.14 67.42 16.15 67.58 16.16C67.58 16.32 67.57 16.47 67.55 16.6C67.19 16.68 66.95 16.74 66.83 16.78C66.72 16.81 66.61 16.86 66.5 16.92L66.46 17.05L66.46 17.15L66.47 17.32L66.46 17.4C66.45 17.49 66.45 17.55 66.45 17.6L66.45 17.76C66.45 17.94 66.46 18.05 66.46 18.07L66.46 18.86L66.46 19.46L66.45 20.26C66.45 20.29 66.45 20.34 66.45 20.39C66.45 20.6 66.46 20.93 66.47 21.38L66.47 22.27L66.48 23.01C66.48 23.15 66.48 23.32 66.47 23.51Q66.59 23.55 66.7 23.57C67.07 23.66 67.35 23.74 67.54 23.83L67.56 24.27C67.4 24.27 67.31 24.27 67.28 24.27C67.09 24.27 66.87 24.26 66.63 24.24C66.3 24.2 65.78 24.18 65.07 24.18C64.74 24.18 64.33 24.21 63.81 24.26C63.76 24.26 63.69 24.25 63.61 24.22C63.62 24.03 63.63 23.9 63.64 23.82L64.1 23.71L64.58 23.62C64.62 23.61 64.68 23.59 64.76 23.57C64.8 23.23 64.83 22.67 64.83 21.88L64.84 21.35C64.81 21.13 64.8 20.87 64.8 20.56C64.65 20.55 64.5 20.54 64.33 20.53L61.58 20.5L61.53 20.5L61.49 20.49Q61.45 20.49 61.4 20.5C61.29 20.5 61.21 20.5 61.14 20.5L60.97 20.5C60.89 20.5 60.81 20.52 60.72 20.55L60.69 21.01L60.69 21.1C60.7 21.21 60.7 21.28 60.7 21.32L60.7 23.25Q60.7 23.42 60.72 23.59L60.78 23.62L61.65 23.77C61.69 23.78 61.73 23.79 61.75 23.8C61.8 23.81 61.84 23.83 61.88 23.86Q61.9 24 61.9 24.05C61.9 24.1 61.89 24.18 61.87 24.27Q61.66 24.28 61.51 24.28C61.43 24.28 61.35 24.28 61.27 24.27Q61.22 24.27 61.17 24.27L60.34 24.23C60.14 24.21 59.86 24.2 59.51 24.2L59.39 24.21C59.22 24.21 59.12 24.22 59.1 24.22C58.85 24.26 58.47 24.27 57.95 24.27ZM69.54 16.91C69.45 16.88 69.38 16.86 69.31 16.85C68.93 16.76 68.65 16.68 68.47 16.59L68.45 16.15L68.73 16.15L68.94 16.15L69.38 16.18C69.7 16.22 70.22 16.24 70.93 16.24C71.16 16.24 71.37 16.23 71.57 16.22L72.19 16.16C72.25 16.16 72.32 16.17 72.39 16.19C72.39 16.39 72.38 16.53 72.37 16.6L71.96 16.7L71.73 16.74C71.48 16.78 71.32 16.82 71.24 16.85C71.19 17.06 71.17 18.35 71.17 20.74L71.2 23.45C71.33 23.47 71.49 23.47 71.68 23.47L74.42 23.51L74.61 23.52C75.01 23.52 75.23 23.5 75.29 23.47L75.32 22.32L75.31 19.11L75.3 17.3C75.3 17.06 75.29 16.91 75.28 16.83C75.26 16.8 75.19 16.79 75.08 16.77L74.81 16.73C74.69 16.71 74.58 16.69 74.48 16.67L74.26 16.62C74.2 16.61 74.16 16.59 74.13 16.57C74.11 16.47 74.11 16.41 74.11 16.37Q74.11 16.28 74.13 16.15L74.5 16.14C74.65 16.14 74.86 16.15 75.13 16.17L76.5 16.22C76.65 16.22 76.83 16.21 77.04 16.17L77.42 16.15L78.05 16.14C78.05 16.27 78.04 16.42 78.02 16.59L77.52 16.68C77.27 16.72 77.09 16.77 76.96 16.82L76.88 18.39L76.91 19.66L76.9 20.05L76.88 21.8L76.89 22.34L76.89 22.61C76.89 23.07 76.93 23.38 77.01 23.52C77.1 23.66 77.26 23.77 77.51 23.84C77.66 23.89 77.76 23.96 77.8 24.05C77.84 24.13 77.86 24.39 77.87 24.83L77.91 25.46C77.92 25.62 77.93 25.79 77.94 25.96C77.85 25.98 77.74 25.99 77.6 26C77.53 25.86 77.46 25.71 77.39 25.54C77.21 25.11 77.05 24.82 76.91 24.67C76.77 24.54 76.61 24.44 76.42 24.39C76.22 24.34 75.6 24.29 74.54 24.24C73.49 24.2 72.43 24.17 71.36 24.17C70.31 24.17 69.58 24.2 69.15 24.25C68.98 24.27 68.86 24.28 68.79 24.28C68.72 24.28 68.59 24.27 68.42 24.26C68.43 24.09 68.44 23.95 68.45 23.81C68.99 23.7 69.34 23.6 69.51 23.5C69.54 23.42 69.56 23.18 69.56 22.79C69.56 22.76 69.56 22.72 69.55 22.67L69.55 22.35L69.54 20.96L69.55 19.85L69.54 19.03L69.54 18.14L69.52 17.41C69.52 17.27 69.53 17.1 69.54 16.91ZM87.39 16.62L87.39 16.14L88.8 16.23L89.43 16.23L89.67 16.23C89.91 16.23 90.28 16.21 90.79 16.18C91.09 16.16 91.27 16.15 91.34 16.15C91.84 16.15 92.22 16.18 92.47 16.24Q93.05 16.37 93.38 16.64C93.61 16.83 93.81 17.09 93.97 17.43Q94.22 17.94 94.22 18.37C94.22 19.1 94 19.69 93.57 20.15C93.14 20.6 92.59 20.82 91.94 20.82C91.71 20.82 91.49 20.79 91.28 20.73C91.07 20.67 90.88 20.59 90.7 20.47Q90.67 20.29 90.67 19.97C90.76 19.98 90.85 19.98 90.92 19.99C91 19.99 91.07 20 91.13 20C91.47 20 91.75 19.9 91.98 19.7C92.28 19.45 92.43 19.03 92.43 18.46Q92.43 17.85 92.23 17.46C92.1 17.2 91.95 17.02 91.76 16.93C91.51 16.8 91.23 16.74 90.91 16.74C90.62 16.74 90.41 16.79 90.28 16.88C90.25 16.93 90.22 16.99 90.21 17.04L90.25 19.98L90.24 20.23L90.26 20.5C90.26 20.55 90.26 20.64 90.26 20.75L90.26 21.27L90.27 22.08L90.26 23.06C90.26 23.2 90.27 23.38 90.29 23.62L91.47 23.77C91.48 23.87 91.49 23.95 91.49 24.01C91.49 24.07 91.48 24.16 91.46 24.27C91.36 24.29 91.29 24.3 91.24 24.3C91.12 24.3 90.88 24.28 90.55 24.26Q90.04 24.21 89.39 24.21C88.9 24.21 88.43 24.24 87.99 24.31C87.92 24.32 87.8 24.33 87.64 24.34C87.62 24.22 87.61 24.13 87.61 24.07C87.61 24.03 87.62 23.97 87.63 23.89L87.99 23.77C88.23 23.69 88.45 23.59 88.63 23.48C88.67 23.36 88.68 23.25 88.68 23.15C88.68 23.11 88.68 23.06 88.68 23C88.67 22.88 88.67 22.69 88.67 22.46L88.65 20.7L88.59 18.72C88.56 17.78 88.54 17.27 88.52 17.19C88.5 17.07 88.45 16.98 88.38 16.91Q88.28 16.8 88.05 16.76C87.72 16.7 87.5 16.65 87.39 16.62ZM103.26 24.27C103.26 24.15 103.27 24 103.29 23.83L104.03 23.69C104.12 23.67 104.23 23.64 104.36 23.59L104.43 22.03Q104.41 21.18 104.41 20.76L104.42 20.61C104.43 20.44 104.43 20.01 104.43 19.33L104.42 19.14L104.43 18.62L104.43 18.07L104.43 17.81C104.43 17.56 104.41 17.28 104.37 16.95C104.37 16.93 104.35 16.88 104.33 16.8C104.3 16.79 104.26 16.78 104.22 16.78C104.18 16.78 104.15 16.77 104.11 16.76C103.95 16.73 103.79 16.71 103.62 16.7L103.53 16.67C103.42 16.66 103.34 16.64 103.29 16.62C103.27 16.5 103.27 16.42 103.27 16.39C103.27 16.34 103.28 16.27 103.3 16.18C103.38 16.17 103.49 16.16 103.63 16.16C103.78 16.16 103.88 16.16 103.93 16.15C104.41 16.21 104.77 16.24 105 16.24C105.11 16.24 105.21 16.25 105.32 16.25Q105.49 16.26 105.61 16.26C105.74 16.26 106.06 16.24 106.56 16.2Q106.69 16.17 106.83 16.17Q107.05 16.17 107.2 16.19C107.2 16.28 107.21 16.34 107.21 16.38Q107.21 16.48 107.18 16.62L106.14 16.8C106.05 16.84 106.01 16.9 106.01 16.98L106.03 17.21L106.04 17.31L106.03 17.59L106.02 17.8L106.02 17.85C106.02 17.89 106.02 17.93 106.02 17.97L106.02 18.76C106.02 18.84 106.02 18.89 106.02 18.93C106.02 18.95 106.02 19.02 106.01 19.13C106.01 19.2 106.01 19.27 106.01 19.34C106.01 19.4 106.01 19.55 106.02 19.78C106.13 19.8 106.23 19.82 106.3 19.82L107.18 19.84L107.6 19.84L108.67 19.84L109.7 19.81C109.83 19.81 109.98 19.8 110.13 19.77C110.13 19.63 110.14 19.28 110.14 18.72L110.16 18.44L110.12 17.38L110.08 16.94C110.07 16.91 110.04 16.89 110 16.86C109.86 16.78 109.58 16.68 109.17 16.58C109.09 16.56 109.02 16.54 108.96 16.52C108.96 16.37 108.98 16.25 109 16.16C109.09 16.16 109.14 16.15 109.16 16.15L109.74 16.16C110.1 16.21 110.47 16.23 110.85 16.23Q110.98 16.23 111.06 16.23L111.83 16.2C111.9 16.2 111.97 16.2 112.04 16.19Q112.25 16.14 112.47 16.14C112.59 16.14 112.72 16.15 112.89 16.16C112.88 16.32 112.87 16.47 112.86 16.6C112.49 16.68 112.26 16.74 112.14 16.78C112.03 16.81 111.92 16.86 111.8 16.92L111.77 17.05L111.77 17.15L111.78 17.32L111.77 17.4C111.76 17.49 111.76 17.55 111.76 17.6L111.76 17.76C111.76 17.94 111.76 18.05 111.76 18.07L111.76 18.86L111.77 19.46L111.76 20.26C111.76 20.29 111.76 20.34 111.76 20.39C111.76 20.6 111.76 20.93 111.78 21.38L111.78 22.27L111.79 23.01C111.79 23.15 111.78 23.32 111.78 23.51C111.86 23.54 111.93 23.56 112.01 23.57C112.38 23.66 112.66 23.74 112.85 23.83L112.86 24.27C112.71 24.27 112.61 24.27 112.59 24.27C112.4 24.27 112.18 24.26 111.93 24.24C111.61 24.2 111.09 24.18 110.37 24.18C110.05 24.18 109.63 24.21 109.12 24.26C109.07 24.26 109 24.25 108.92 24.22C108.92 24.03 108.93 23.9 108.95 23.82L109.4 23.71L109.88 23.62C109.93 23.61 109.99 23.59 110.07 23.57C110.11 23.23 110.13 22.67 110.14 21.88L110.14 21.35C110.12 21.13 110.11 20.87 110.11 20.56C109.96 20.55 109.8 20.54 109.64 20.53L106.89 20.5L106.84 20.5L106.8 20.49C106.77 20.49 106.74 20.49 106.7 20.5C106.6 20.5 106.51 20.5 106.44 20.5L106.28 20.5C106.2 20.5 106.12 20.52 106.02 20.55L106 21.01L106 21.1C106.01 21.21 106.01 21.28 106.01 21.32L106.01 23.25C106.01 23.36 106.02 23.47 106.03 23.59L106.09 23.62L106.96 23.77C107 23.78 107.03 23.79 107.06 23.8C107.11 23.81 107.15 23.83 107.19 23.86C107.2 23.95 107.21 24.02 107.21 24.05C107.21 24.1 107.2 24.18 107.18 24.27C107.04 24.28 106.92 24.28 106.82 24.28C106.73 24.28 106.65 24.28 106.58 24.27C106.54 24.27 106.51 24.27 106.48 24.27L105.64 24.23C105.45 24.21 105.17 24.2 104.82 24.2L104.69 24.21C104.53 24.21 104.43 24.22 104.4 24.22C104.16 24.26 103.78 24.27 103.26 24.27ZM174.81 16.62L174.8 16.14L176.21 16.23L176.84 16.23L177.08 16.23Q177.44 16.23 178.2 16.18C178.5 16.16 178.68 16.15 178.75 16.15C179.25 16.15 179.63 16.18 179.88 16.24C180.26 16.32 180.57 16.46 180.79 16.64C181.02 16.83 181.22 17.09 181.38 17.43C181.54 17.77 181.63 18.08 181.63 18.37C181.63 19.1 181.41 19.69 180.98 20.15C180.55 20.6 180 20.82 179.35 20.82C179.12 20.82 178.9 20.79 178.69 20.73C178.48 20.67 178.29 20.59 178.11 20.47C178.09 20.35 178.08 20.18 178.08 19.97C178.18 19.98 178.26 19.98 178.33 19.99C178.41 19.99 178.48 20 178.54 20C178.88 20 179.16 19.9 179.39 19.7C179.69 19.45 179.84 19.03 179.84 18.46C179.84 18.05 179.78 17.72 179.64 17.46C179.51 17.2 179.36 17.02 179.17 16.93C178.92 16.8 178.64 16.74 178.32 16.74C178.03 16.74 177.82 16.79 177.69 16.88C177.66 16.93 177.64 16.99 177.62 17.04L177.66 19.98L177.65 20.23L177.67 20.5C177.67 20.55 177.67 20.64 177.67 20.75L177.67 21.27L177.68 22.08L177.67 23.06C177.67 23.2 177.68 23.38 177.7 23.62L178.88 23.77C178.89 23.87 178.9 23.95 178.9 24.01C178.9 24.07 178.89 24.16 178.87 24.27C178.77 24.29 178.7 24.3 178.65 24.3C178.53 24.3 178.3 24.28 177.96 24.26Q177.45 24.21 176.8 24.21C176.31 24.21 175.84 24.24 175.4 24.31C175.33 24.32 175.21 24.33 175.05 24.34C175.03 24.22 175.02 24.13 175.02 24.07Q175.02 24.01 175.04 23.89L175.4 23.77C175.64 23.69 175.86 23.59 176.04 23.48C176.08 23.36 176.09 23.25 176.09 23.15C176.09 23.11 176.09 23.06 176.09 23C176.08 22.88 176.08 22.69 176.08 22.46L176.06 20.7L176 18.72C175.97 17.78 175.95 17.27 175.93 17.19C175.91 17.07 175.86 16.98 175.79 16.91C175.73 16.84 175.61 16.79 175.46 16.76C175.13 16.7 174.91 16.65 174.81 16.62ZM193.3 22.03Q196.45 18.67 197.42 17.5C197.42 17.19 197.41 17.01 197.39 16.97C197.37 16.92 197.3 16.86 197.19 16.81C197.08 16.75 196.87 16.68 196.55 16.6C196.39 16.57 196.29 16.54 196.25 16.52C196.26 16.36 196.27 16.24 196.29 16.16L196.46 16.15C196.79 16.15 197.01 16.16 197.12 16.17C197.43 16.21 197.74 16.23 198.06 16.23C198.56 16.23 199.02 16.21 199.44 16.17Q199.67 16.14 199.81 16.14C199.89 16.14 200.02 16.15 200.18 16.16C200.17 16.33 200.16 16.47 200.15 16.6C199.7 16.7 199.4 16.79 199.26 16.85C199.12 16.91 199.06 17.01 199.06 17.17L199.06 18.07L199.06 19.46L199.05 20.26L199.07 21.38L199.07 22.27L199.08 23.01C199.08 23.16 199.07 23.32 199.07 23.51C199.15 23.54 199.23 23.56 199.3 23.57C199.67 23.66 199.95 23.74 200.14 23.83L200.15 24.27L199.9 24.27C199.83 24.27 199.76 24.27 199.67 24.26L199.23 24.24Q198.74 24.18 197.68 24.18C197.32 24.18 197.04 24.19 196.84 24.22Q196.47 24.26 196.39 24.26C196.35 24.26 196.29 24.25 196.21 24.22C196.22 24.02 196.23 23.89 196.24 23.82L196.64 23.72L196.87 23.67C197.12 23.63 197.28 23.6 197.36 23.57Q197.44 23.1 197.44 21.35L197.43 19.51L197.44 18.34L193.3 22.85C193.31 23.32 193.31 23.57 193.32 23.59C193.34 23.62 193.41 23.64 193.53 23.65L193.91 23.71C194.25 23.78 194.44 23.83 194.48 23.86C194.49 23.95 194.5 24.02 194.5 24.05C194.5 24.1 194.49 24.18 194.47 24.27L194.11 24.28C193.96 24.28 193.75 24.27 193.47 24.24L193.03 24.24L192.73 24.22L192.19 24.2C192.02 24.2 191.81 24.21 191.56 24.24C191.31 24.26 190.97 24.27 190.55 24.27C190.55 24.15 190.56 24 190.58 23.83C190.62 23.82 190.7 23.81 190.83 23.79L191.09 23.74C191.33 23.7 191.52 23.65 191.65 23.59Q191.71 22.41 191.71 21.53L191.71 20.7L191.72 18.58C191.72 17.94 191.7 17.39 191.66 16.94C191.66 16.91 191.64 16.87 191.62 16.8C191.59 16.79 191.56 16.78 191.51 16.78C191.48 16.78 191.44 16.77 191.4 16.76C191.22 16.73 191.05 16.71 190.91 16.7L190.82 16.67C190.71 16.66 190.63 16.64 190.58 16.62C190.57 16.5 190.56 16.42 190.56 16.39C190.56 16.34 190.57 16.27 190.6 16.18C190.68 16.16 190.77 16.15 190.87 16.15C191.16 16.15 191.5 16.17 191.88 16.21C192.23 16.24 192.51 16.26 192.74 16.26C193.06 16.26 193.35 16.25 193.62 16.22C193.95 16.18 194.15 16.16 194.21 16.16C194.28 16.16 194.38 16.17 194.49 16.19L194.5 16.38C194.5 16.45 194.49 16.53 194.47 16.62L193.43 16.8C193.37 16.81 193.34 16.9 193.33 17.09C193.31 17.28 193.31 17.5 193.31 17.76L193.31 18.06L193.31 18.62L193.31 18.94L193.3 19.37C193.3 19.42 193.3 19.52 193.31 19.66C193.32 19.85 193.32 20.04 193.32 20.22C193.32 20.37 193.32 20.52 193.31 20.67L193.29 21L193.3 22.03ZM210.61 24.27C210.61 24.15 210.62 24 210.65 23.83L211.39 23.69C211.48 23.67 211.59 23.64 211.71 23.59L211.79 22.03C211.77 21.47 211.77 21.04 211.77 20.76L211.77 20.61C211.78 20.44 211.79 20.01 211.79 19.33L211.78 19.14L211.79 18.62L211.78 18.07L211.78 17.81Q211.78 17.44 211.73 16.95C211.73 16.93 211.71 16.88 211.68 16.8C211.65 16.79 211.62 16.78 211.58 16.78C211.54 16.78 211.5 16.77 211.46 16.76C211.31 16.73 211.15 16.71 210.97 16.7L210.88 16.67C210.78 16.66 210.7 16.64 210.64 16.62C210.63 16.5 210.62 16.42 210.62 16.39C210.62 16.34 210.64 16.27 210.66 16.18C210.74 16.17 210.85 16.16 210.99 16.16C211.13 16.16 211.23 16.16 211.29 16.15C211.77 16.21 212.12 16.24 212.36 16.24C212.46 16.24 212.57 16.25 212.68 16.25Q212.84 16.26 212.97 16.26C213.1 16.26 213.41 16.24 213.92 16.2C214 16.18 214.09 16.17 214.19 16.17Q214.41 16.17 214.56 16.19C214.56 16.28 214.56 16.34 214.56 16.38C214.56 16.45 214.55 16.53 214.54 16.62L213.5 16.8C213.41 16.84 213.37 16.9 213.37 16.98L213.38 17.21L213.39 17.31L213.38 17.59L213.37 17.8L213.37 17.85C213.38 17.89 213.38 17.93 213.38 17.97L213.37 18.76C213.38 18.84 213.38 18.89 213.38 18.93C213.38 18.95 213.38 19.02 213.37 19.13C213.36 19.2 213.36 19.27 213.36 19.34C213.36 19.4 213.37 19.55 213.38 19.78C213.49 19.8 213.58 19.82 213.66 19.82L214.53 19.84L214.96 19.84L216.02 19.84L217.06 19.81C217.19 19.81 217.33 19.8 217.48 19.77C217.49 19.63 217.5 19.28 217.5 18.72L217.51 18.44L217.48 17.38L217.43 16.94C217.42 16.91 217.4 16.89 217.35 16.86C217.21 16.78 216.94 16.68 216.52 16.58C216.45 16.56 216.38 16.54 216.31 16.52C216.32 16.37 216.33 16.25 216.36 16.16C216.45 16.16 216.5 16.15 216.52 16.15L217.09 16.16Q217.64 16.23 218.21 16.23Q218.34 16.23 218.42 16.23L219.18 16.2C219.26 16.2 219.32 16.2 219.39 16.19C219.53 16.16 219.68 16.14 219.83 16.14C219.94 16.14 220.08 16.15 220.24 16.16C220.24 16.32 220.23 16.47 220.21 16.6C219.85 16.68 219.61 16.74 219.5 16.78C219.39 16.81 219.28 16.86 219.16 16.92L219.13 17.05L219.13 17.15L219.13 17.32L219.13 17.4C219.12 17.49 219.11 17.55 219.11 17.6L219.11 17.76Q219.12 18.04 219.12 18.07L219.12 18.86L219.13 19.46L219.11 20.26Q219.11 20.31 219.11 20.39Q219.11 20.7 219.13 21.38L219.13 22.27L219.14 23.01C219.14 23.15 219.14 23.32 219.13 23.51C219.21 23.54 219.29 23.56 219.36 23.57C219.73 23.66 220.01 23.74 220.2 23.83L220.22 24.27C220.06 24.27 219.97 24.27 219.94 24.27C219.75 24.27 219.54 24.26 219.29 24.24C218.97 24.2 218.45 24.18 217.73 24.18C217.41 24.18 216.99 24.21 216.48 24.26C216.42 24.26 216.35 24.25 216.28 24.22C216.28 24.03 216.29 23.9 216.31 23.82L216.76 23.71L217.24 23.62C217.29 23.61 217.35 23.59 217.42 23.57C217.47 23.23 217.49 22.67 217.49 21.88L217.5 21.35C217.48 21.13 217.46 20.87 217.46 20.56C217.32 20.55 217.16 20.54 216.99 20.53L214.25 20.5L214.19 20.5L214.15 20.49C214.13 20.49 214.09 20.49 214.06 20.5Q213.91 20.5 213.8 20.5L213.63 20.5C213.56 20.5 213.47 20.52 213.38 20.55L213.36 21.01L213.36 21.1C213.36 21.21 213.37 21.28 213.37 21.32L213.37 23.25C213.37 23.36 213.37 23.47 213.38 23.59L213.44 23.62L214.31 23.77C214.36 23.78 214.39 23.79 214.41 23.8C214.46 23.81 214.51 23.83 214.54 23.86C214.56 23.95 214.56 24.02 214.56 24.05C214.56 24.1 214.55 24.18 214.54 24.27C214.4 24.28 214.28 24.28 214.18 24.28C214.09 24.28 214.01 24.28 213.93 24.27C213.9 24.27 213.87 24.27 213.83 24.27L213 24.23C212.8 24.21 212.53 24.2 212.17 24.2L212.05 24.21C211.88 24.21 211.79 24.22 211.76 24.22C211.52 24.26 211.13 24.27 210.61 24.27ZM221.09 24.27C221.09 24.15 221.1 24 221.12 23.83L221.86 23.69C221.95 23.67 222.06 23.64 222.19 23.59L222.26 22.03C222.25 21.47 222.24 21.04 222.24 20.76L222.25 20.61C222.26 20.44 222.26 20.01 222.26 19.33L222.25 19.14L222.26 18.62L222.26 18.07L222.26 17.81C222.26 17.56 222.24 17.28 222.21 16.95C222.2 16.93 222.19 16.88 222.16 16.8C222.13 16.79 222.09 16.78 222.05 16.78C222.02 16.78 221.98 16.77 221.94 16.76C221.79 16.73 221.62 16.71 221.45 16.7L221.36 16.67C221.25 16.66 221.17 16.64 221.12 16.62C221.11 16.5 221.1 16.42 221.1 16.39C221.1 16.34 221.11 16.27 221.14 16.18Q221.25 16.16 221.47 16.16C221.61 16.16 221.71 16.16 221.76 16.15C222.24 16.21 222.6 16.24 222.83 16.24C222.94 16.24 223.04 16.25 223.15 16.25C223.26 16.26 223.36 16.26 223.44 16.26C223.57 16.26 223.89 16.24 224.39 16.2C224.48 16.18 224.57 16.17 224.66 16.17Q224.88 16.17 225.03 16.19C225.04 16.28 225.04 16.34 225.04 16.38C225.04 16.45 225.03 16.53 225.01 16.62L223.97 16.8C223.89 16.84 223.84 16.9 223.84 16.98L223.86 17.21L223.87 17.31L223.86 17.59L223.85 17.8L223.85 17.85C223.85 17.89 223.85 17.93 223.85 17.97L223.85 18.76C223.85 18.84 223.85 18.89 223.85 18.93C223.85 18.95 223.85 19.02 223.84 19.13C223.84 19.2 223.84 19.27 223.84 19.34C223.84 19.4 223.84 19.55 223.85 19.78C223.96 19.8 224.06 19.82 224.13 19.82L225.01 19.84L225.43 19.84L226.5 19.84L227.53 19.81C227.67 19.81 227.81 19.8 227.96 19.77C227.97 19.63 227.97 19.28 227.97 18.72L227.99 18.44L227.95 17.38L227.91 16.94C227.9 16.91 227.87 16.89 227.83 16.86C227.69 16.78 227.41 16.68 227 16.58C226.92 16.56 226.85 16.54 226.79 16.52C226.79 16.37 226.81 16.25 226.83 16.16Q226.96 16.15 226.99 16.15L227.57 16.16C227.93 16.21 228.31 16.23 228.68 16.23C228.77 16.23 228.84 16.23 228.89 16.23L229.66 16.2C229.73 16.2 229.8 16.2 229.87 16.19C230.01 16.16 230.15 16.14 230.3 16.14C230.42 16.14 230.56 16.15 230.72 16.16C230.71 16.32 230.7 16.47 230.69 16.6C230.33 16.68 230.09 16.74 229.97 16.78C229.86 16.81 229.75 16.86 229.64 16.92L229.6 17.05L229.6 17.15L229.61 17.32L229.6 17.4C229.59 17.49 229.59 17.55 229.59 17.6L229.59 17.76C229.59 17.94 229.59 18.05 229.59 18.07L229.59 18.86L229.6 19.46L229.59 20.26C229.59 20.29 229.59 20.34 229.59 20.39C229.59 20.6 229.59 20.93 229.61 21.38L229.61 22.27L229.62 23.01C229.62 23.15 229.61 23.32 229.61 23.51C229.69 23.54 229.77 23.56 229.84 23.57C230.21 23.66 230.49 23.74 230.68 23.83L230.69 24.27C230.54 24.27 230.44 24.27 230.42 24.27C230.23 24.27 230.01 24.26 229.77 24.24C229.44 24.2 228.92 24.18 228.21 24.18C227.88 24.18 227.46 24.21 226.95 24.26C226.9 24.26 226.83 24.25 226.75 24.22C226.76 24.03 226.77 23.9 226.78 23.82L227.24 23.71L227.71 23.62C227.76 23.61 227.82 23.59 227.9 23.57C227.94 23.23 227.97 22.67 227.97 21.88L227.97 21.35C227.95 21.13 227.94 20.87 227.94 20.56C227.79 20.55 227.64 20.54 227.47 20.53L224.72 20.5L224.67 20.5L224.63 20.49C224.6 20.49 224.57 20.49 224.53 20.5C224.43 20.5 224.35 20.5 224.27 20.5L224.11 20.5C224.03 20.5 223.95 20.52 223.85 20.55L223.83 21.01L223.83 21.1C223.84 21.21 223.84 21.28 223.84 21.32L223.84 23.25C223.84 23.36 223.85 23.47 223.86 23.59L223.92 23.62L224.79 23.77C224.83 23.78 224.87 23.79 224.89 23.8C224.94 23.81 224.98 23.83 225.02 23.86C225.03 23.95 225.04 24.02 225.04 24.05C225.04 24.1 225.03 24.18 225.01 24.27C224.87 24.28 224.75 24.28 224.65 24.28C224.57 24.28 224.49 24.28 224.41 24.27C224.37 24.27 224.34 24.27 224.31 24.27L223.48 24.23C223.28 24.21 223 24.2 222.65 24.2L222.52 24.21C222.36 24.21 222.26 24.22 222.23 24.22C221.99 24.26 221.61 24.27 221.09 24.27ZM265.61 16.62L265.6 16.14L267.01 16.23L267.65 16.23L267.88 16.23C268.12 16.23 268.5 16.21 269.01 16.18C269.3 16.16 269.48 16.15 269.56 16.15C270.05 16.15 270.43 16.18 270.68 16.24C271.07 16.32 271.37 16.46 271.6 16.64C271.82 16.83 272.02 17.09 272.18 17.43C272.35 17.77 272.43 18.08 272.43 18.37C272.43 19.1 272.21 19.69 271.78 20.15C271.35 20.6 270.81 20.82 270.15 20.82C269.92 20.82 269.7 20.79 269.49 20.73C269.29 20.67 269.09 20.59 268.91 20.47Q268.88 20.29 268.88 19.97C268.98 19.98 269.06 19.98 269.14 19.99C269.22 19.99 269.29 20 269.34 20C269.68 20 269.96 19.9 270.19 19.7Q270.22 19.68 270.24 19.65Q270.65 19.27 270.65 18.46C270.65 18.05 270.58 17.72 270.44 17.46C270.31 17.2 270.16 17.02 269.98 16.93C269.73 16.8 269.44 16.74 269.13 16.74C268.83 16.74 268.62 16.79 268.49 16.88C268.46 16.93 268.44 16.99 268.42 17.04L268.46 19.98L268.45 20.23L268.47 20.5C268.47 20.55 268.48 20.64 268.48 20.75L268.48 21.27L268.48 22.08L268.47 23.06C268.47 23.2 268.48 23.38 268.51 23.62L269.68 23.77C269.7 23.87 269.71 23.95 269.71 24.01C269.71 24.07 269.7 24.16 269.68 24.27C269.58 24.29 269.5 24.3 269.45 24.3C269.33 24.3 269.1 24.28 268.76 24.26Q268.25 24.21 267.6 24.21C267.11 24.21 266.65 24.24 266.21 24.31C266.13 24.32 266.01 24.33 265.85 24.34C265.84 24.22 265.83 24.13 265.83 24.07C265.83 24.03 265.83 23.97 265.84 23.89L266.2 23.77C266.45 23.69 266.66 23.59 266.84 23.48C266.88 23.36 266.9 23.25 266.9 23.15C266.9 23.11 266.9 23.06 266.89 23C266.89 22.88 266.89 22.69 266.89 22.46L266.87 20.7L266.8 18.72C266.78 17.78 266.75 17.27 266.74 17.19C266.71 17.07 266.66 16.98 266.6 16.91C266.53 16.84 266.42 16.79 266.26 16.76C265.93 16.7 265.72 16.65 265.61 16.62ZM289.96 16.62L289.96 16.14L291.37 16.23L292 16.23L292.24 16.23C292.48 16.23 292.85 16.21 293.36 16.18C293.66 16.16 293.84 16.15 293.91 16.15C294.41 16.15 294.78 16.18 295.04 16.24C295.42 16.32 295.73 16.46 295.95 16.64C296.18 16.83 296.38 17.09 296.54 17.43C296.7 17.77 296.79 18.08 296.79 18.37Q296.79 19.19 296.42 19.78L296.42 19.78Q296.3 19.98 296.14 20.15C295.71 20.6 295.16 20.82 294.51 20.82C294.28 20.82 294.06 20.79 293.85 20.73C293.64 20.67 293.45 20.59 293.27 20.47C293.25 20.35 293.24 20.18 293.24 19.97C293.33 19.98 293.42 19.98 293.49 19.99Q293.61 20 293.7 20C294.04 20 294.32 19.9 294.55 19.7Q294.57 19.68 294.6 19.65Q295 19.27 295 18.46C295 18.05 294.93 17.72 294.8 17.46C294.67 17.2 294.51 17.02 294.33 16.93Q293.96 16.74 293.48 16.74C293.19 16.74 292.98 16.79 292.85 16.88C292.82 16.93 292.79 16.99 292.78 17.04L292.82 19.98L292.81 20.23L292.83 20.5C292.83 20.55 292.83 20.64 292.83 20.75L292.83 21.27L292.84 22.08L292.83 23.06C292.83 23.2 292.84 23.38 292.86 23.62L294.04 23.77C294.05 23.87 294.06 23.95 294.06 24.01C294.06 24.07 294.05 24.16 294.03 24.27C293.93 24.29 293.86 24.3 293.81 24.3C293.69 24.3 293.45 24.28 293.12 24.26Q292.61 24.21 291.96 24.21C291.47 24.21 291 24.24 290.56 24.31C290.49 24.32 290.37 24.33 290.21 24.34C290.19 24.22 290.18 24.13 290.18 24.07C290.18 24.03 290.19 23.97 290.2 23.89L290.56 23.77C290.8 23.69 291.02 23.59 291.2 23.48C291.24 23.36 291.25 23.25 291.25 23.15C291.25 23.11 291.25 23.06 291.25 23C291.24 22.88 291.24 22.69 291.24 22.46L291.22 20.7L291.16 18.72C291.13 17.78 291.11 17.27 291.09 17.19C291.07 17.07 291.02 16.98 290.95 16.91C290.89 16.84 290.77 16.79 290.62 16.76C290.29 16.7 290.07 16.65 289.96 16.62ZM234.36 19.64Q235 19.59 235.53 19.59C236.65 19.59 237.47 19.81 238 20.24Q238.47 20.63 238.66 21.12Q238.79 21.46 238.79 21.85C238.79 22.6 238.49 23.2 237.91 23.66C237.32 24.1 236.59 24.32 235.71 24.32C235.55 24.32 235.27 24.31 234.89 24.28C234.63 24.26 234.31 24.25 233.93 24.25C233.77 24.25 233.46 24.26 233 24.29L231.62 24.35L231.63 23.85C231.71 23.82 231.82 23.8 231.97 23.78Q232.4 23.72 232.6 23.62C232.7 23.52 232.75 23.09 232.75 22.31C232.75 20.84 232.74 19.57 232.72 18.49C232.71 17.42 232.67 16.85 232.63 16.8C232.58 16.74 232.45 16.7 232.23 16.69C232.14 16.69 231.95 16.66 231.65 16.62L231.63 16.18L231.89 16.17C232.21 16.17 232.64 16.2 233.18 16.24L233.67 16.28C233.79 16.28 233.97 16.27 234.21 16.25L234.55 16.22C234.78 16.2 234.94 16.19 235.03 16.18C235.17 16.16 235.32 16.15 235.49 16.15L235.49 16.28L235.48 16.49C235.48 16.52 235.48 16.55 235.48 16.6C234.87 16.72 234.54 16.82 234.46 16.89C234.39 16.95 234.35 17.14 234.35 17.45L234.36 17.76C234.37 17.92 234.37 18.12 234.37 18.39L234.36 19.64ZM239.28 24.3L239.28 23.85C239.36 23.82 239.49 23.79 239.67 23.74C239.93 23.68 240.12 23.61 240.25 23.54C240.32 23.41 240.35 23.23 240.35 23L240.35 22.26L240.36 20.83L240.35 20.5C240.38 19.67 240.4 19.24 240.4 19.22L240.38 18.39L240.4 18.05L240.37 17.34L240.37 17.07Q240.36 17 240.32 16.87C240.16 16.79 239.9 16.74 239.54 16.72C239.45 16.71 239.38 16.71 239.33 16.7L239.31 16.15L241 16.22C241.21 16.23 241.34 16.23 241.39 16.23Q241.74 16.23 242.51 16.18C242.8 16.16 242.98 16.15 243.06 16.15Q243.06 16.27 243.06 16.35C243.06 16.42 243.06 16.51 243.05 16.62C242.89 16.68 242.71 16.74 242.51 16.79Q242.2 16.87 242.01 16.95C241.99 17.06 241.97 17.21 241.97 17.42C241.97 17.6 241.98 17.74 241.99 17.86C241.98 18.56 241.97 19.1 241.97 19.48L241.98 21.13L241.96 21.97L241.97 23.22L241.97 23.46C241.97 23.49 241.98 23.54 241.99 23.61C242.23 23.66 242.45 23.7 242.65 23.72C242.68 23.72 242.8 23.74 243.01 23.77C243.02 23.89 243.03 24 243.03 24.08C243.03 24.13 243.03 24.2 243.03 24.29C242.97 24.29 242.94 24.3 242.91 24.3C242.78 24.31 242.71 24.31 242.69 24.31C242.66 24.31 242.61 24.31 242.54 24.29C242.48 24.28 242.22 24.26 241.75 24.21L240.7 24.19C240.49 24.19 240.19 24.21 239.79 24.26C239.53 24.28 239.36 24.3 239.28 24.3ZM289.67 18.31L289.42 18.32C289.37 18.32 289.3 18.31 289.22 18.31C289.18 18.23 289.14 18.1 289.08 17.94L288.85 17.49C288.75 17.3 288.62 17.1 288.46 16.92C288.4 16.89 288.28 16.88 288.08 16.87L286.73 16.79L285.93 16.8L285.58 16.8C285.55 16.87 285.54 16.95 285.54 17.06L285.54 20.01L285.53 20.41L285.55 20.78L285.57 21.24C285.57 21.36 285.56 21.55 285.55 21.82Q285.54 22.02 285.54 22.15L285.56 22.66L285.55 22.86C285.57 23.05 285.57 23.18 285.57 23.27Q285.57 23.36 285.6 23.45Q285.6 23.47 285.61 23.49C285.65 23.51 285.76 23.55 285.97 23.61L286.16 23.66C286.28 23.69 286.37 23.72 286.45 23.72C286.59 23.74 286.67 23.76 286.71 23.81Q286.77 23.86 286.77 24.04C286.77 24.22 286.72 24.31 286.6 24.31C286.56 24.31 286.39 24.3 286.09 24.27L285.77 24.26L285.7 24.25C285.55 24.24 285.43 24.24 285.34 24.24L284.71 24.25L283.86 24.25L283.06 24.29L282.84 24.29C282.8 24.29 282.76 24.28 282.72 24.26C282.72 24.2 282.72 24.15 282.72 24.11C282.72 24.05 282.72 23.97 282.73 23.86C282.77 23.82 282.86 23.77 283.02 23.74C283.1 23.72 283.19 23.68 283.28 23.64L283.51 23.56C283.69 23.49 283.79 23.45 283.82 23.42C283.84 23.39 283.87 23.28 283.89 23.09C283.92 22.89 283.93 22.75 283.93 22.67L283.91 21.35L283.9 20.55L283.91 19.9L283.91 19.28C283.91 18.96 283.89 18.51 283.87 17.95L283.88 17.16Q283.88 16.94 283.82 16.88C283.79 16.84 283.69 16.82 283.54 16.82C283.48 16.82 283.32 16.8 283.06 16.75C282.8 16.7 282.66 16.67 282.63 16.65Q282.59 16.57 282.59 16.28C282.59 16.24 282.59 16.2 282.6 16.15L282.76 16.15C282.84 16.15 283.01 16.16 283.28 16.18L284.99 16.25L287.32 16.23L288.11 16.22C288.64 16.22 289.12 16.25 289.56 16.31C289.63 16.38 289.66 16.49 289.66 16.65L289.67 18.31ZM305.31 24.29L305.33 23.87C305.82 23.8 306.14 23.69 306.27 23.55C306.35 23.45 306.42 23.19 306.47 22.77L306.55 20.54L306.64 18.27C306.64 18.14 306.65 18.05 306.65 18.02C306.65 17.44 306.61 17.1 306.55 17C306.48 16.91 306.23 16.82 305.79 16.74C305.68 16.71 305.59 16.69 305.53 16.67C305.52 16.57 305.52 16.48 305.52 16.41L305.52 16.22C305.66 16.2 305.84 16.2 306.03 16.2L307.76 16.26C307.8 16.26 307.86 16.27 307.93 16.27L308.2 16.28C308.27 16.37 308.34 16.48 308.4 16.62Q308.62 17.07 308.98 17.96L309.05 18.12L309.97 20.25C309.99 20.3 310.02 20.37 310.06 20.46Q310.15 20.69 310.25 20.9C310.31 21.03 310.38 21.18 310.44 21.34C310.51 21.5 310.58 21.65 310.64 21.77C310.7 21.67 310.75 21.56 310.8 21.44C310.96 21.06 311.11 20.7 311.26 20.38C311.52 19.82 311.88 18.95 312.32 17.78C312.39 17.59 312.51 17.31 312.67 16.94C312.84 16.56 312.93 16.36 312.94 16.33C312.98 16.3 313.05 16.28 313.16 16.28C313.2 16.28 313.26 16.28 313.34 16.28C313.54 16.27 313.79 16.26 314.08 16.25C314.49 16.24 314.82 16.23 315.07 16.21Q315.45 16.17 315.5 16.17C315.54 16.17 315.58 16.18 315.64 16.18C315.64 16.24 315.65 16.29 315.65 16.32L315.63 16.51C315.63 16.55 315.63 16.6 315.63 16.68C315.26 16.74 314.96 16.83 314.72 16.94C314.56 17.03 314.48 17.13 314.48 17.25L314.48 17.35L314.58 19.26Q314.6 19.53 314.68 21.87C314.69 22.22 314.71 22.67 314.75 23.2C314.76 23.27 314.76 23.32 314.76 23.36C314.77 23.46 314.79 23.53 314.82 23.56C314.86 23.58 315.22 23.71 315.89 23.92C315.89 23.98 315.89 24.03 315.89 24.07C315.89 24.16 315.89 24.24 315.89 24.33C315.78 24.33 315.51 24.31 315.08 24.26C314.65 24.21 314.25 24.19 313.88 24.19Q313.02 24.19 312.21 24.26C312.14 24.27 312.07 24.28 312 24.28L312.01 23.85C312.18 23.78 312.39 23.73 312.66 23.68C312.85 23.65 312.97 23.59 313.02 23.51C313.07 23.43 313.1 23.21 313.1 22.85C313.1 22.71 313.1 22.59 313.09 22.49C313.07 22.05 313.06 21.44 313.06 20.66L312.96 18.45C312.94 18.14 312.93 17.92 312.91 17.8L311.44 21.38C311.41 21.46 311.35 21.58 311.28 21.74C311.19 21.95 311.13 22.08 311.1 22.16Q310.64 23.32 310.47 23.93C310.43 24.03 310.39 24.17 310.32 24.34L309.87 24.33L309.55 23.37C309.46 23.12 309.29 22.74 309.07 22.23C308.93 21.94 308.83 21.7 308.75 21.52C308.72 21.44 308.69 21.38 308.68 21.35L308.6 21.19C308.6 21.17 308.59 21.14 308.59 21.13L307.71 19.12L307.17 17.9L307.12 20.86L307.08 22.78C307.08 23.1 307.13 23.32 307.24 23.46C307.36 23.59 307.6 23.71 307.97 23.81L308.26 23.88L308.26 24.34C308.03 24.33 307.78 24.32 307.52 24.29C307.26 24.25 306.91 24.24 306.48 24.24C306.39 24.24 306 24.26 305.31 24.29ZM316.41 24.29L316.43 23.87C316.92 23.8 317.24 23.69 317.37 23.55C317.46 23.45 317.53 23.19 317.57 22.77L317.65 20.54L317.74 18.27C317.75 18.14 317.75 18.05 317.75 18.02C317.75 17.44 317.72 17.1 317.65 17C317.59 16.91 317.33 16.82 316.89 16.74C316.78 16.71 316.7 16.69 316.63 16.67C316.62 16.57 316.62 16.48 316.62 16.41L316.62 16.22C316.77 16.2 316.94 16.2 317.13 16.2L318.87 16.26C318.91 16.26 318.96 16.27 319.03 16.27L319.3 16.28C319.37 16.37 319.44 16.48 319.51 16.62Q319.72 17.07 320.08 17.96L320.15 18.12L321.07 20.25C321.09 20.3 321.12 20.37 321.17 20.46C321.23 20.61 321.29 20.76 321.35 20.9C321.41 21.03 321.48 21.18 321.54 21.34C321.62 21.5 321.68 21.65 321.75 21.77C321.8 21.67 321.85 21.56 321.91 21.44C322.06 21.06 322.22 20.7 322.37 20.38C322.63 19.82 322.98 18.95 323.42 17.78C323.5 17.59 323.61 17.31 323.77 16.94C323.94 16.56 324.03 16.36 324.04 16.33C324.08 16.3 324.15 16.28 324.26 16.28C324.3 16.28 324.36 16.28 324.44 16.28C324.65 16.27 324.89 16.26 325.18 16.25C325.59 16.24 325.93 16.23 326.17 16.21Q326.55 16.17 326.6 16.17C326.64 16.17 326.69 16.18 326.74 16.18C326.75 16.24 326.75 16.29 326.75 16.32L326.74 16.51C326.74 16.55 326.73 16.6 326.73 16.68C326.36 16.74 326.06 16.83 325.82 16.94C325.66 17.03 325.58 17.13 325.58 17.25L325.58 17.35L325.68 19.26C325.69 19.44 325.73 20.31 325.78 21.87C325.79 22.22 325.82 22.67 325.85 23.2C325.86 23.27 325.87 23.32 325.87 23.36C325.87 23.46 325.89 23.53 325.93 23.56C325.96 23.58 326.32 23.71 326.99 23.92C326.99 23.98 327 24.03 327 24.07C327 24.16 326.99 24.24 326.99 24.33C326.88 24.33 326.62 24.31 326.19 24.26C325.76 24.21 325.35 24.19 324.98 24.19C324.41 24.19 323.85 24.21 323.31 24.26C323.24 24.27 323.17 24.28 323.1 24.28L323.12 23.85C323.28 23.78 323.49 23.73 323.76 23.68C323.95 23.65 324.07 23.59 324.12 23.51C324.17 23.43 324.2 23.21 324.2 22.85C324.2 22.71 324.2 22.59 324.19 22.49C324.17 22.05 324.16 21.44 324.16 20.66L324.06 18.45C324.04 18.14 324.03 17.92 324.02 17.8L322.54 21.38Q322.49 21.5 322.38 21.74C322.29 21.95 322.23 22.08 322.2 22.16Q321.75 23.32 321.57 23.93C321.54 24.03 321.49 24.17 321.43 24.34L320.97 24.33L320.65 23.37C320.56 23.12 320.4 22.74 320.17 22.23C320.03 21.94 319.93 21.7 319.85 21.52C319.82 21.44 319.79 21.38 319.78 21.35L319.71 21.19C319.7 21.17 319.7 21.14 319.69 21.13L318.81 19.12L318.27 17.9L318.22 20.86L318.18 22.78C318.18 23.1 318.24 23.32 318.35 23.46C318.46 23.59 318.7 23.71 319.07 23.81L319.36 23.88L319.36 24.34C319.13 24.33 318.88 24.32 318.62 24.29C318.36 24.25 318.01 24.24 317.58 24.24C317.49 24.24 317.1 24.26 316.41 24.29ZM243.56 16.2C243.71 16.19 243.82 16.19 243.91 16.19C244 16.19 244.08 16.19 244.14 16.2L244.46 16.22L244.6 16.22C244.62 16.22 244.7 16.23 244.82 16.25Q245.15 16.3 245.77 16.3C246.28 16.3 246.77 16.27 247.22 16.2C247.29 16.21 247.36 16.21 247.43 16.22C247.42 16.36 247.42 16.5 247.42 16.64C247.36 16.66 247.32 16.68 247.29 16.69L246.71 16.8C246.66 16.81 246.6 16.83 246.51 16.87C246.52 16.94 246.53 17 246.54 17.03C246.83 17.55 247.1 17.98 247.35 18.33L247.92 19.2L247.99 19.3L248.32 18.86L249.06 17.73C249.23 17.45 249.35 17.24 249.39 17.1C249.41 17.06 249.42 17.02 249.42 16.99L249.4 16.89C249.32 16.84 249.26 16.81 249.21 16.8C249.18 16.79 249.11 16.79 248.99 16.79C248.78 16.78 248.6 16.76 248.44 16.74C248.42 16.65 248.42 16.59 248.42 16.55C248.42 16.53 248.42 16.48 248.43 16.4C248.43 16.37 248.43 16.32 248.44 16.25C248.48 16.25 248.52 16.24 248.55 16.22C248.91 16.25 249.64 16.26 250.75 16.26C250.89 16.26 251.02 16.25 251.13 16.24C251.24 16.23 251.31 16.22 251.33 16.22C251.37 16.22 251.43 16.23 251.51 16.24C251.53 16.32 251.54 16.4 251.54 16.47C251.54 16.51 251.54 16.57 251.53 16.67L250.62 16.87C250.55 16.9 250.46 16.96 250.37 17.05C250.28 17.13 250.04 17.44 249.64 17.99L248.78 19.16C248.69 19.3 248.6 19.42 248.54 19.51C248.47 19.59 248.42 19.67 248.36 19.73L248.45 19.86C248.67 20.19 248.89 20.52 249.12 20.86L250.29 22.7C250.6 23.19 250.83 23.49 250.98 23.6C251.09 23.68 251.36 23.76 251.79 23.85C251.81 23.93 251.81 23.99 251.81 24.01C251.81 24.03 251.8 24.11 251.78 24.24L251.8 24.3L251.38 24.31C251.29 24.31 251.11 24.3 250.85 24.28L250.12 24.23L250.04 24.22Q249.92 24.21 249.87 24.21C249.62 24.21 249.33 24.23 248.99 24.26C248.65 24.28 248.4 24.3 248.25 24.3C248.14 24.3 247.98 24.3 247.74 24.29L247.74 24.12Q247.74 24.01 247.76 23.89C248.06 23.81 248.38 23.74 248.71 23.69C248.75 23.66 248.8 23.63 248.86 23.6L248.86 23.53C248.86 23.49 248.86 23.45 248.84 23.42C248.82 23.34 248.76 23.22 248.68 23.07C248.5 22.78 248.27 22.43 247.97 22.02L247.27 21.02C247.18 21.13 246.86 21.6 246.32 22.41C246.15 22.62 246 22.84 245.88 23.09C245.8 23.24 245.76 23.34 245.76 23.38L245.77 23.43L245.85 23.54C245.99 23.61 246.17 23.69 246.39 23.76C246.61 23.83 246.75 23.88 246.81 23.91L246.85 24.19L246.85 24.22L246.83 24.29C246.72 24.31 246.64 24.32 246.6 24.32C246.54 24.32 246.35 24.3 246.04 24.27C245.93 24.26 245.74 24.25 245.46 24.24L245.18 24.24L243.88 24.3C243.85 24.3 243.76 24.3 243.6 24.29L243.58 24.01C243.58 23.97 243.58 23.92 243.59 23.85C243.66 23.84 243.75 23.83 243.85 23.82C244.16 23.79 244.39 23.73 244.56 23.64C244.62 23.61 244.75 23.48 244.93 23.26C245.21 22.94 245.46 22.62 245.69 22.3C245.82 22.12 245.92 21.98 245.99 21.89C246.2 21.59 246.52 21.15 246.93 20.58L246.58 20.03C246.33 19.7 246.14 19.42 246 19.21L245.65 18.67C245.52 18.44 245.43 18.29 245.38 18.23C245.2 17.97 244.97 17.63 244.71 17.19C244.61 17.03 244.49 16.92 244.33 16.84C244.18 16.77 243.93 16.72 243.58 16.7L243.58 16.6C243.58 16.56 243.58 16.52 243.58 16.5C243.56 16.42 243.55 16.37 243.55 16.35L243.56 16.2ZM78.76 16.2C78.99 16.21 79.18 16.23 79.35 16.25Q79.82 16.32 80.43 16.32C80.57 16.32 80.94 16.31 81.52 16.28C82.4 16.25 83.2 16.23 83.91 16.23L84.98 16.22C85.22 16.22 85.57 16.25 86.04 16.31Q86.04 16.31 86.04 16.31L86.05 16.31Q86.15 16.44 86.15 16.65L86.15 17.94L86.16 18.19C86.16 18.22 86.16 18.26 86.15 18.31L85.91 18.32C85.88 18.32 85.81 18.31 85.71 18.31C85.67 18.22 85.63 18.1 85.57 17.94L85.33 17.49C85.24 17.3 85.12 17.11 84.95 16.92C84.85 16.89 84.73 16.87 84.58 16.87C84.54 16.86 84.42 16.85 84.21 16.84C83.85 16.8 83.45 16.79 83.03 16.79Q82.31 16.79 81.74 16.81C81.73 16.91 81.73 17.33 81.73 18.04L81.74 19.09L81.74 19.88C81.84 19.89 81.92 19.9 81.99 19.9C82.7 19.9 83.2 19.89 83.5 19.86C83.8 19.83 83.98 19.79 84.05 19.74C84.13 19.68 84.19 19.59 84.24 19.46C84.28 19.37 84.35 19.06 84.45 18.54L84.53 18.54L84.87 18.54C84.89 18.91 84.89 19.2 84.89 19.39C84.89 19.83 84.89 20.11 84.88 20.23C84.88 20.36 84.88 20.46 84.88 20.53Q84.88 20.7 84.89 21.07C84.91 21.32 84.91 21.5 84.91 21.62L84.91 21.76L84.49 21.76C84.48 21.69 84.45 21.56 84.4 21.35Q84.29 20.76 84.19 20.62C84.14 20.55 84.06 20.49 83.95 20.45C83.88 20.42 83.58 20.41 83.08 20.41C82.48 20.41 82.04 20.42 81.74 20.46C81.73 20.57 81.73 20.64 81.73 20.67C81.73 21.17 81.74 21.58 81.76 21.91L81.74 23.26C81.74 23.42 81.8 23.53 81.9 23.59C82.06 23.67 82.56 23.72 83.39 23.72C83.93 23.72 84.4 23.67 84.78 23.59C85.05 23.52 85.28 23.38 85.48 23.17C85.75 22.89 85.97 22.5 86.15 21.99C86.27 21.98 86.37 21.97 86.45 21.97C86.49 21.97 86.56 21.97 86.64 21.98C86.63 22.08 86.62 22.17 86.61 22.24L86.58 22.43L86.36 23.61L86.25 24.32C86 24.34 85.79 24.34 85.65 24.34C85.42 24.34 84.84 24.32 83.88 24.28C83.2 24.25 82.39 24.24 81.44 24.24C80.97 24.24 80.39 24.26 79.7 24.3L79.45 24.3L78.73 24.32L78.73 23.89C78.81 23.87 78.96 23.85 79.18 23.82Q79.8 23.75 80.04 23.62C80.08 23.5 80.1 23.35 80.1 23.17C80.1 23.1 80.1 22.98 80.09 22.8L80.1 22.61L80.08 20.25L80.09 19.54L80.06 18.54L80.06 17.84L80.01 17.06C80.01 17.04 80.01 17 80 16.94C79.96 16.89 79.9 16.86 79.82 16.85C79.78 16.84 79.72 16.83 79.64 16.81C79.42 16.76 79.2 16.73 78.99 16.72C78.92 16.72 78.83 16.71 78.73 16.7L78.76 16.2ZM52.54 16.65C52.2 16.65 51.89 16.74 51.63 16.91C51.37 17.08 51.17 17.26 51.03 17.47C50.81 17.81 50.65 18.19 50.55 18.61C50.46 19.01 50.41 19.51 50.41 20.1C50.41 20.46 50.43 20.72 50.45 20.87C50.46 20.92 50.47 21.01 50.49 21.13C50.52 21.44 50.57 21.66 50.61 21.8C50.78 22.33 50.9 22.66 50.97 22.79C51.09 23 51.27 23.21 51.5 23.42C51.62 23.53 51.79 23.63 52.01 23.72C52.24 23.81 52.46 23.85 52.69 23.85C53.11 23.85 53.51 23.74 53.87 23.54C54.24 23.32 54.53 22.96 54.75 22.46C54.97 21.96 55.08 21.3 55.08 20.49C55.08 20.16 55.06 19.7 55.02 19.13L54.99 19.01C54.98 18.98 54.96 18.89 54.93 18.76C54.78 18.07 54.5 17.55 54.09 17.19C53.68 16.83 53.16 16.65 52.54 16.65ZM117.91 16.65C117.57 16.65 117.27 16.74 117 16.91C116.74 17.08 116.54 17.26 116.4 17.47C116.18 17.81 116.02 18.19 115.93 18.61Q115.78 19.22 115.78 20.1C115.78 20.46 115.8 20.72 115.82 20.87C115.83 20.92 115.84 21.01 115.86 21.13C115.9 21.44 115.94 21.66 115.98 21.8C116.15 22.33 116.27 22.66 116.34 22.79C116.46 23 116.64 23.21 116.87 23.42C116.99 23.53 117.16 23.63 117.39 23.72C117.61 23.81 117.83 23.85 118.06 23.85C118.49 23.85 118.88 23.74 119.24 23.54C119.61 23.32 119.9 22.96 120.12 22.46C120.34 21.96 120.45 21.3 120.45 20.49C120.45 20.16 120.43 19.7 120.39 19.13L120.36 19.01C120.35 18.98 120.33 18.89 120.3 18.76C120.15 18.07 119.87 17.55 119.46 17.19C119.05 16.83 118.53 16.65 117.91 16.65ZM205.2 16.65C204.86 16.65 204.56 16.74 204.29 16.91C204.03 17.08 203.83 17.26 203.7 17.47C203.47 17.81 203.31 18.19 203.22 18.61C203.12 19.01 203.08 19.51 203.08 20.1C203.08 20.46 203.09 20.72 203.12 20.87C203.12 20.92 203.14 21.01 203.15 21.13C203.19 21.44 203.23 21.66 203.28 21.8C203.45 22.33 203.57 22.66 203.64 22.79C203.76 23 203.93 23.21 204.16 23.42C204.28 23.53 204.45 23.63 204.68 23.72C204.9 23.81 205.13 23.85 205.35 23.85C205.78 23.85 206.17 23.74 206.53 23.54C206.9 23.32 207.19 22.96 207.41 22.46C207.63 21.96 207.75 21.3 207.75 20.49C207.75 20.16 207.72 19.7 207.68 19.13L207.65 19.01C207.64 18.98 207.62 18.89 207.59 18.76C207.45 18.07 207.17 17.55 206.75 17.19C206.34 16.83 205.83 16.65 205.2 16.65ZM277.32 16.65Q276.93 16.65 276.61 16.8Q276.51 16.85 276.42 16.91C276.15 17.08 275.95 17.26 275.82 17.47C275.59 17.81 275.43 18.19 275.34 18.61C275.24 19.01 275.2 19.51 275.2 20.1C275.2 20.46 275.21 20.72 275.24 20.87C275.25 20.92 275.26 21.01 275.27 21.13C275.31 21.44 275.35 21.66 275.4 21.8C275.57 22.33 275.69 22.66 275.76 22.79Q275.94 23.1 276.29 23.42C276.4 23.53 276.57 23.63 276.8 23.72Q277.14 23.85 277.47 23.85C277.9 23.85 278.29 23.74 278.66 23.54C279.02 23.32 279.32 22.96 279.54 22.46Q279.87 21.7 279.87 20.49C279.87 20.16 279.85 19.7 279.8 19.13L279.77 19.01C279.76 18.98 279.74 18.89 279.71 18.76C279.57 18.07 279.29 17.55 278.87 17.19C278.46 16.83 277.95 16.65 277.32 16.65ZM12.28 20.78Q13.66 20.8 13.91 20.8L14.05 20.8C13.94 20.42 13.78 19.99 13.59 19.5C13.4 19 13.25 18.63 13.13 18.37L12.28 20.78ZM299.75 20.78C300.67 20.8 301.21 20.8 301.38 20.8L301.53 20.8C301.41 20.42 301.26 19.99 301.07 19.5C300.88 19 300.72 18.63 300.6 18.37L299.75 20.78ZM234.44 23.59C234.69 23.7 234.93 23.76 235.16 23.76C236.43 23.76 237.07 23.17 237.07 22C237.07 20.77 236.43 20.15 235.14 20.15C234.79 20.15 234.54 20.17 234.37 20.21C234.36 20.37 234.36 20.5 234.36 20.59L234.37 20.98L234.37 21.91L234.38 23.2L234.38 23.3C234.38 23.39 234.4 23.48 234.44 23.59ZM126.42 21.12L128.28 21.12L129.23 21.11C129.36 21.11 129.48 21.12 129.59 21.13C129.6 21.33 129.61 21.48 129.62 21.57L129.63 21.68L129.6 22C129.6 22.05 129.6 22.12 129.6 22.19L129.6 22.3L126.39 22.31C126.39 22.19 126.39 22.1 126.39 22.03C126.39 21.93 126.39 21.81 126.4 21.68C126.4 21.62 126.41 21.57 126.41 21.54L126.4 21.23L126.42 21.12Z" fill="#FFFFFF" fill-opacity="1.000000" fill-rule="evenodd"/>
	</g>
</svg>
