<svg width="32.000000" height="32.000000" viewBox="0 0 32 32" fill="none" xmlns="http://www.w3.org/2000/svg" xmlns:xlink="http://www.w3.org/1999/xlink">
	<desc>
			Created with Pixso.
	</desc>
	<defs/>
	<path id="Vector" d="M16 2.66C23.36 2.66 29.33 8.63 29.33 16C29.33 23.36 23.36 29.33 16 29.33C8.63 29.33 2.66 23.36 2.66 16C2.66 8.63 8.63 2.66 16 2.66ZM16 8C15.64 8 15.3 8.14 15.05 8.39C14.8 8.64 14.66 8.97 14.66 9.33L14.66 16C14.66 16.35 14.8 16.69 15.05 16.94L19.05 20.94C19.3 21.18 19.64 21.32 19.99 21.31C20.34 21.31 20.67 21.17 20.92 20.92C21.17 20.67 21.31 20.34 21.31 19.99C21.32 19.64 21.18 19.3 20.94 19.05L17.33 15.44L17.33 9.33C17.33 8.97 17.19 8.64 16.94 8.39C16.69 8.14 16.35 8 16 8Z" fill="#191919" fill-opacity="0.300000" fill-rule="nonzero"/>
</svg>
